<?xml version="1.0" encoding="utf-8"?><svg viewBox="0 0 366.072 260.101" xmlns="http://www.w3.org/2000/svg" xmlns:xlink="http://www.w3.org/1999/xlink"><style>:root>svg{display:none}:root>svg:target{display:block}</style><svg fill="none" viewBox="0 0 28 18" id="arrows" xmlns="http://www.w3.org/2000/svg"><path d="M19 2.333 25.667 9 19 15.667m-10 0L2.333 9 9 2.333" stroke="#7E8492" stroke-width="3" stroke-linecap="round" stroke-linejoin="round"/></svg><svg fill="none" viewBox="0 0 176.654 148.5" id="customer-graph" xmlns="http://www.w3.org/2000/svg"><path stroke="#E6E9ED" stroke-dasharray="2.000000,2.000000" d="M28.702 12.709h143M28.702 64.709h143M28.702 119.709h143"/><path d="M37.49 140.66v-6.24h1.06v6.24c0 1.67-.97 2.6-2.49 2.6-1.43 0-2.47-.82-2.47-2.16h1.04c0 .74.6 1.23 1.43 1.23.91 0 1.43-.59 1.43-1.67Zm6.91 1.6c-.21.42-.81 1.04-1.95 1.04-1.24 0-2.23-.74-2.23-2.01 0-1.5 1.33-1.77 2.54-1.93 1.19-.15 1.69-.11 1.69-.6v-.03c0-.84-.46-1.33-1.38-1.33-.96 0-1.49.51-1.71.99l-.95-.34c.51-1.2 1.63-1.54 2.62-1.54.84 0 2.42.24 2.42 2.32v4.31h-1v-.88h-.05Zm5.57-4.84c-.96 0-1.67.64-1.67 1.79v3.93h-1.01v-6.54h.98v1.02h.08c.31-.66.92-1.11 1.91-1.11 1.32 0 2.22.8 2.22 2.47v4.16h-1.01v-4.09c0-1.02-.57-1.63-1.5-1.63Zm-8.74 3.92c0 .7.58 1.05 1.38 1.05 1.19 0 1.84-.8 1.84-1.62v-.92c-.17.21-1.32.33-1.74.38-.79.1-1.48.34-1.48 1.11Z" fill="#808D9E" fill-rule="evenodd"/><path d="M4.95 7.55q-.58.97-.58 2.7 0 1.76.58 2.74.17.28.4.48.59.51 1.62.51 1.02 0 1.62-.51.23-.2.39-.48.59-.98.59-2.74 0-1.73-.59-2.7-.16-.27-.38-.46-.59-.51-1.63-.51t-1.63.51q-.23.19-.39.46ZM15.65 14l-2.54-2.75 2.54-2.77h-1.58l-2 2.41V6.6h-1.14V14h1.14v-2.38L14.11 14h1.54ZM.72 6.7v1.05h.93V14H2.8V6.7H.72Zm7.63 2.19q.1.55.1 1.36 0 .84-.1 1.42-.1.56-.42.92-.04.03-.08.07-.32.28-.88.28t-.88-.28q-.04-.04-.08-.07-.32-.36-.42-.92-.1-.58-.1-1.42 0-.81.11-1.36.1-.56.42-.92.04-.04.09-.08.31-.27.86-.27t.87.27l.08.08q.32.36.43.92ZM13.89 68l-2.54-2.75 2.54-2.77h-1.58l-2 2.41V60.6H9.17V68h1.14v-2.38L12.35 68h1.54Zm-9.91-6.32h3.35v-.99h-4.4v4.2h1.08q.11-.29.3-.5.09-.09.18-.16.03-.02.07-.04.32-.2.76-.2.63 0 .98.31.04.03.08.07v.01q.36.38.36 1.1 0 .68-.34 1.11-.01.01-.02.03-.06.08-.15.14-.34.29-.91.29-.56 0-.94-.27l-.01-.01q-.16-.12-.28-.27-.15-.21-.21-.48H2.77q.08.54.35.95.18.27.44.49.01.01.02.01.66.53 1.73.53.82 0 1.38-.33.32-.19.56-.46.17-.2.3-.45.28-.57.28-1.31 0-.42-.1-.8-.05-.18-.13-.36-.06-.17-.16-.32-.22-.35-.59-.59-.52-.37-1.36-.37-.3 0-.58.08-.16.05-.3.12-.42.19-.63.47v-2ZM5.97 115.55q-.58.97-.58 2.71 0 1.75.58 2.73.17.28.4.48.59.51 1.62.51 1.02 0 1.62-.51.23-.2.39-.48.59-.98.59-2.73 0-1.74-.59-2.71-.16-.27-.38-.46-.59-.51-1.63-.51t-1.63.51q-.23.19-.39.46Zm3.4 1.34q.1.55.1 1.37 0 .84-.1 1.41t-.42.92q-.04.03-.08.07-.32.28-.88.28t-.88-.28q-.04-.04-.08-.07-.32-.35-.42-.92-.1-.57-.1-1.41 0-.82.11-1.37.1-.56.42-.92.04-.04.09-.08.31-.27.86-.27t.87.27l.08.08q.32.36.43.92Z" fill="#1D1E25" fill-rule="evenodd" opacity=".7"/><path d="M146.97 143.14v-8.72h1.26l2.97 7.24h.1l2.97-7.24h1.26v8.72h-.99v-6.63h-.08l-2.73 6.63h-.96l-2.72-6.63h-.09v6.63h-.99Zm18.31 0h-1.01v-6.54h.98v.99h.06c.24-.65.92-1.09 1.71-1.09.15 0 .41 0 .53.01v1.03c-.07-.02-.35-.07-.62-.07-.95 0-1.65.65-1.65 1.53v4.14Zm-3.9-.88c-.21.42-.81 1.04-1.95 1.04-1.24 0-2.23-.74-2.23-2.01 0-1.5 1.33-1.77 2.54-1.93 1.19-.15 1.69-.11 1.69-.6v-.03c0-.84-.46-1.33-1.38-1.33-.96 0-1.49.51-1.71.99l-.95-.34c.51-1.2 1.63-1.54 2.62-1.54.84 0 2.42.24 2.42 2.32v4.31h-1v-.88h-.05Zm-3.17-.92c0 .7.58 1.05 1.38 1.05 1.19 0 1.84-.8 1.84-1.62v-.92c-.17.21-1.32.33-1.74.38-.79.1-1.48.34-1.48 1.11ZM91.86 143.14h-1.05v-8.72h5.23v.93h-4.18v2.95h3.78v.94h-3.78v3.9Zm13.47 0h-.97v-8.72h1v3.22h.09c.22-.34.61-1.13 1.89-1.13 1.65 0 2.79 1.32 2.79 3.38 0 2.08-1.14 3.39-2.77 3.39-1.27 0-1.69-.78-1.91-1.14h-.12v1Zm-2.75-1.51c-.3.99-1.27 1.65-2.6 1.65-1.9 0-3.06-1.35-3.06-3.36s1.18-3.41 2.95-3.41c1.37 0 2.82.84 2.82 3.28v.42h-4.76c.05 1.41.86 2.17 2.05 2.17.78 0 1.38-.34 1.63-1.03l.97.28Zm-2.71-4.21c-1.15 0-1.87.91-1.94 1.92h3.73c0-1.11-.7-1.92-1.79-1.92Zm7.35 0c-1.23 0-1.88.99-1.88 2.45 0 1.48.67 2.51 1.88 2.51 1.26 0 1.91-1.11 1.91-2.51 0-1.38-.63-2.45-1.91-2.45Z" fill="#808D9E" fill-rule="evenodd"/><rect x="38.25" y="19" rx="6" width="12" height="49.535" fill="#EB6E46"/><rect x="36.75" y="17.5" rx="7.5" width="15" height="52.535" stroke="#FFF" stroke-width="3"/><rect x="38.25" y="33.796" rx="6" width="12" height="49.535" fill="#20BFF7"/><rect x="36.75" y="32.296" rx="7.5" width="15" height="52.535" stroke="#FFF" stroke-width="3"/><rect x="38.25" y="71.108" rx="6" width="12" height="49.535" fill="#2280FF"/><rect x="36.75" y="69.608" rx="7.5" width="15" height="52.535" stroke="#FFF" stroke-width="3"/><rect x="94.25" y="53.096" rx="6" width="12" height="32.292" fill="#EB6E46"/><rect x="92.75" y="51.596" rx="7.5" width="15" height="35.292" stroke="#FFF" stroke-width="3"/><rect x="94.25" y="77.542" rx="6" width="12" height="32.292" fill="#20BFF7"/><rect x="92.75" y="76.042" rx="7.5" width="15" height="35.292" stroke="#FFF" stroke-width="3"/><rect x="94.25" y="103.274" rx="6" width="12" height="17.369" fill="#2280FF"/><rect x="92.75" y="101.774" rx="7.5" width="15" height="20.369" stroke="#FFF" stroke-width="3"/><rect x="150.25" y="57.599" rx="6" width="12" height="30.724" fill="#EB6E46"/><rect x="148.75" y="56.099" rx="7.5" width="15" height="33.724" stroke="#FFF" stroke-width="3"/><rect x="150.25" y="66.777" rx="6" width="12" height="30.724" fill="#20BFF7"/><rect x="148.75" y="65.277" rx="7.5" width="15" height="33.724" stroke="#FFF" stroke-width="3"/><rect x="150.25" y="89.92" rx="6" width="12" height="30.724" fill="#2280FF"/><rect x="148.75" y="88.42" rx="7.5" width="15" height="33.724" stroke="#FFF" stroke-width="3"/></svg><svg fill="none" viewBox="0 0 20 20" id="features-list-icon" xmlns="http://www.w3.org/2000/svg"><path d="m7 10 2 2 4-4m6 2a9 9 0 1 1-18 0 9 9 0 0 1 18 0Z" stroke="#46B277" stroke-width="2" stroke-linecap="round" stroke-linejoin="round"/></svg><svg fill="none" viewBox="0 0 95 88" id="features-total-expense" xmlns="http://www.w3.org/2000/svg"><rect x=".488" y=".089" width="8.674" height="87.422" rx="4.337" fill="#fff"/><rect x=".488" y="32.56" width="8.674" height="54.951" rx="4.337" fill="#1463FF"/><rect x="21.933" y=".089" width="8.674" height="87.437" rx="4.337" fill="#fff"/><rect x="21.933" y="22.132" width="8.674" height="65.394" rx="4.337" fill="#1463FF"/><rect x="43.377" y=".089" width="8.674" height="87.437" rx="4.337" fill="#fff"/><rect x="43.377" y="38.297" width="8.674" height="49.229" rx="4.337" fill="#1463FF"/><rect x="64.823" y=".089" width="8.674" height="87.437" rx="4.337" fill="#fff"/><rect x="64.823" y="47.114" width="8.674" height="40.412" rx="4.337" fill="#1463FF"/><rect x="86.27" y=".089" width="8.674" height="87.437" rx="4.337" fill="#fff"/><rect x="86.27" y="55.931" width="8.674" height="31.595" rx="4.337" fill="#1463FF"/></svg><svg fill="none" viewBox="0 0 95 88" id="features-total-income" xmlns="http://www.w3.org/2000/svg"><rect x=".487" y=".477" width="8.674" height="87.014" rx="4.337" fill="#fff"/><rect x=".487" y="48.006" width="8.674" height="39.486" rx="4.337" fill="#1463FF"/><rect x="21.933" y=".477" width="8.674" height="87.014" rx="4.337" fill="#fff"/><rect x="21.933" y="32.651" width="8.674" height="54.841" rx="4.337" fill="#1463FF"/><rect x="43.378" y=".477" width="8.674" height="87.014" rx="4.337" fill="#fff"/><rect x="43.378" y="40.694" width="8.674" height="46.798" rx="4.337" fill="#1463FF"/><rect x="64.823" y=".477" width="8.674" height="87.014" rx="4.337" fill="#fff"/><rect x="64.823" y="22.414" width="8.674" height="65.078" rx="4.337" fill="#1463FF"/><rect x="86.27" y=".477" width="8.674" height="87.014" rx="4.337" fill="#fff"/><rect x="86.27" y="9.251" width="8.674" height="78.24" rx="4.337" fill="#1463FF"/></svg><svg fill="none" viewBox="0 0 20 20" id="gray-tick" xmlns="http://www.w3.org/2000/svg"><path fill-rule="evenodd" clip-rule="evenodd" d="M10 19.6a9.6 9.6 0 0 0 9.6-9.6 9.6 9.6 0 1 0-9.6 9.6Zm4.449-11.152a1.2 1.2 0 0 0-1.697-1.697L8.8 10.703 7.249 9.15a1.2 1.2 0 0 0-1.697 1.697l2.4 2.4a1.2 1.2 0 0 0 1.697 0l4.8-4.8Z" fill="#7E8492"/></svg><svg fill="none" viewBox="0 0 14.755 10.001" id="green-arrow-icon" xmlns="http://www.w3.org/2000/svg"><rect rx="-.5" width="6.5" height="8" transform="rotate(.016 -5428.991 5452.603)" fill="none"/><path d="M1 4.74 4.75 1 8.5 4.75M13.75 1h-9" stroke="#60D39C" stroke-width="2" stroke-linecap="round"/></svg><svg fill="none" viewBox="0 0 20 20" id="green-tick" xmlns="http://www.w3.org/2000/svg"><path fill-rule="evenodd" clip-rule="evenodd" d="M10 19.6a9.6 9.6 0 0 0 9.6-9.6 9.6 9.6 0 1 0-9.6 9.6Zm4.449-11.152a1.2 1.2 0 0 0-1.697-1.697L8.8 10.703 7.249 9.15a1.2 1.2 0 0 0-1.697 1.697l2.4 2.4a1.2 1.2 0 0 0 1.697 0l4.8-4.8Z" fill="#46B277"/></svg><svg fill="none" viewBox="0 0 128 128" id="linked_path-dark" xmlns="http://www.w3.org/2000/svg"><path fill="#161A34" d="m50.029 80.443-2.725-2.726L76.6 48.42l2.726 2.725z"/><path fill="#161A34" d="M52.891 51.963v-3.854h26.98v3.854z"/><path fill="#161A34" d="M79.891 75.109h-3.854v-26.98h3.854zM71.426 8.064l-.573 3.207a2.833 2.833 0 0 1-.653.42c-.283.14-.644.24-1.083.3-.44.06-.969.035-1.588-.076a3.895 3.895 0 0 1-1.4-.524 3.221 3.221 0 0 1-.995-.994 3.676 3.676 0 0 1-.507-1.394c-.083-.53-.068-1.115.046-1.754l.104-.582c.114-.635.294-1.186.54-1.654.251-.47.557-.852.92-1.145.361-.292.77-.489 1.224-.59a3.74 3.74 0 0 1 1.496-.012c.688.123 1.237.34 1.646.651.413.308.706.686.88 1.134.174.448.247.937.22 1.468l-1.42-.254c.007-.3-.037-.578-.13-.833a1.396 1.396 0 0 0-.468-.643c-.219-.178-.522-.302-.91-.371a1.98 1.98 0 0 0-.917.032c-.276.082-.521.23-.734.446-.21.217-.388.494-.536.833a5.314 5.314 0 0 0-.344 1.188l-.106.594c-.082.462-.108.88-.075 1.255.036.375.124.703.264.982.145.28.34.507.587.682.247.171.54.287.878.348.33.059.607.08.828.064.222-.02.4-.057.538-.112a1.59 1.59 0 0 0 .335-.178l.298-1.667-1.747-.313.193-1.078 3.19.57ZM78.962 12.937l-.364 1.108-4.303-1.415.364-1.107 4.303 1.414Zm-1.607-8.281L74.69 12.76l-1.397-.459 2.664-8.105 1.398.46Zm2.233 4.484-.36 1.09-3.74-1.229.359-1.09 3.74 1.229Zm1.646-3.209-.366 1.113-4.275-1.405.366-1.113 4.275 1.405ZM87.712 8.167l-3.813 7.631-1.305-.652 3.813-7.631 1.305.652Zm2.395 1.197-.523 1.048-6.075-3.036.523-1.048 6.075 3.036ZM98.235 14.008l-5.119 6.825-1.176-.883 5.119-6.825 1.176.883ZM106.491 20.817l-6.227 5.832-1.005-1.073 1.845-6.97-4.46 4.178-1.006-1.074 6.226-5.832 1.006 1.074-1.845 6.986 4.468-4.185.998 1.064ZM114.794 30.864l-7.408 4.23-.724-1.267 7.409-4.23.723 1.267Zm1.328 2.325-1.017.581-3.368-5.897 1.018-.581 3.367 5.897ZM116.491 42.923l-.442.156c-.608.215-1.181.329-1.719.341a3.74 3.74 0 0 1-1.472-.243 3.098 3.098 0 0 1-1.151-.774 3.602 3.602 0 0 1-.746-1.265 3.592 3.592 0 0 1-.214-1.447c.038-.469.173-.912.406-1.33.233-.419.562-.796.985-1.133.425-.332.942-.606 1.549-.821l.442-.157c.608-.215 1.18-.326 1.716-.333a3.816 3.816 0 0 1 1.474.249c.448.177.832.437 1.152.779.325.345.575.764.75 1.257.176.498.246.982.21 1.455a3.064 3.064 0 0 1-.405 1.33 3.743 3.743 0 0 1-.992 1.116c-.421.331-.936.605-1.543.82Zm-.933-1.23.453-.16a5.07 5.07 0 0 0 1.141-.553c.316-.208.56-.437.732-.688.177-.25.282-.517.313-.801.036-.286 0-.582-.109-.888a1.89 1.89 0 0 0-.471-.753 1.752 1.752 0 0 0-.748-.425 2.73 2.73 0 0 0-1.002-.074 5.072 5.072 0 0 0-1.234.287l-.453.16a5.144 5.144 0 0 0-1.146.556c-.315.21-.562.443-.742.697-.174.256-.28.526-.316.808-.034.281.004.575.112.88.11.31.266.563.468.76.206.197.457.337.751.419.298.08.635.102 1.011.065.378-.035.791-.131 1.24-.29ZM122.994 49.982l.258 1.442-5.612 1.004c-.638.114-1.197.072-1.678-.128-.48-.2-.872-.519-1.177-.956a3.85 3.85 0 0 1-.606-1.529c-.108-.603-.097-1.161.034-1.673a2.62 2.62 0 0 1 .774-1.293c.383-.346.893-.576 1.532-.69l5.612-1.004.258 1.442-5.612 1.003c-.404.073-.724.201-.961.387a1.322 1.322 0 0 0-.466.69 2.083 2.083 0 0 0-.023.933c.061.346.176.633.344.86.168.233.394.395.676.487.287.092.632.101 1.035.03l5.612-1.005ZM118.707 59.826l.028 1.464a3.376 3.376 0 0 1-1.502-.44 2.786 2.786 0 0 1-1.047-1.099c-.259-.475-.396-1.057-.409-1.744a3.462 3.462 0 0 1 .254-1.429c.183-.425.445-.792.787-1.1a3.66 3.66 0 0 1 1.258-.715 5.523 5.523 0 0 1 1.659-.267l.709-.013a5.404 5.404 0 0 1 1.669.208c.499.154.927.38 1.284.678.362.298.64.658.836 1.08.196.426.299.907.309 1.442.013.68-.101 1.256-.342 1.73a2.706 2.706 0 0 1-1.016 1.109c-.436.27-.938.44-1.508.51l-.028-1.465a2.7 2.7 0 0 0 .938-.276c.26-.134.455-.33.587-.586.136-.256.199-.59.192-1a1.946 1.946 0 0 0-.205-.875 1.655 1.655 0 0 0-.563-.616 2.646 2.646 0 0 0-.903-.363 5.344 5.344 0 0 0-1.21-.1l-.72.014c-.43.008-.82.053-1.17.134a2.862 2.862 0 0 0-.889.368 1.694 1.694 0 0 0-.568.62 1.791 1.791 0 0 0-.188.89c.008.417.081.754.218 1.009.138.26.335.453.592.58.26.132.576.216.948.252ZM120.783 69.808l-1.151-.188.729-4.47 1.151.188-.729 4.47Zm4.186-3.538-8.42-1.373.237-1.452 8.42 1.373-.237 1.452Zm-.852 5.228-8.42-1.374.236-1.445 8.42 1.373-.236 1.446ZM108.782 98.312l-2.496-2.094c-.045-.196-.057-.454-.038-.774.019-.315.112-.678.279-1.09.166-.41.452-.857.856-1.339.344-.41.728-.727 1.152-.953a3.222 3.222 0 0 1 1.357-.368c.475-.02.962.065 1.461.255.502.191 1.001.496 1.498.913l.453.38c.494.414.882.845 1.165 1.291.284.452.462.908.536 1.367.073.46.041.912-.098 1.357-.138.45-.383.884-.734 1.303-.45.536-.911.903-1.384 1.103a2.553 2.553 0 0 1-1.422.199 3.504 3.504 0 0 1-1.382-.54l.926-1.105c.258.155.52.256.788.302.265.049.528.02.791-.086.263-.1.521-.302.775-.604.218-.26.361-.531.428-.811s.06-.567-.021-.86a2.803 2.803 0 0 0-.456-.879 5.31 5.31 0 0 0-.859-.89l-.463-.387a4.821 4.821 0 0 0-1.05-.69 2.752 2.752 0 0 0-.983-.26 1.88 1.88 0 0 0-.884.17c-.271.128-.518.325-.739.588a3.422 3.422 0 0 0-.468.685c-.093.203-.15.377-.17.523a1.528 1.528 0 0 0-.013.38l1.297 1.088 1.141-1.36.84.704-2.083 2.482ZM100.527 102.657l-.778-.869 3.372-3.023.779.868-3.373 3.024Zm7.98 2.738-5.695-6.352 1.095-.982 5.695 6.352-1.095.982Zm-5.001-.302-.766-.855 2.932-2.629.766.856-2.932 2.628Zm1.96 3.028-.783-.873 3.351-3.003.782.872-3.35 3.004ZM100.455 112.45l-4.737-7.095 1.213-.81 4.737 7.095-1.213.81Zm-2.227 1.487-.651-.975 5.648-3.77.651.974-5.648 3.771ZM90.27 118.605l-3.382-7.832 1.35-.583 3.382 7.832-1.35.583ZM79.948 122.455l-1.917-8.313 1.433-.331 5.102 5.095-1.373-5.955 1.433-.33 1.917 8.313-1.433.33-5.116-5.104 1.376 5.967-1.422.328ZM67.1 124.557l.066-8.531 1.459.011-.066 8.531-1.459-.011Zm-2.677-.021.008-1.172 6.791.053-.009 1.171-6.79-.052ZM55.772 119.95l.086-.461a5.546 5.546 0 0 1 .567-1.658 3.72 3.72 0 0 1 .948-1.152c.37-.297.785-.5 1.246-.608.46-.105.95-.109 1.468-.012.515.096.968.276 1.36.54.387.267.703.606.948 1.018.245.411.407.884.486 1.42.075.534.053 1.118-.065 1.752l-.086.461c-.118.633-.308 1.184-.57 1.651-.264.472-.582.856-.955 1.151a3.125 3.125 0 0 1-1.252.607 3.51 3.51 0 0 1-1.464.019 3.53 3.53 0 0 1-1.364-.547 3.06 3.06 0 0 1-.948-1.018 3.74 3.74 0 0 1-.469-1.416c-.075-.531-.054-1.113.064-1.747Zm1.532-.191-.088.473a5.06 5.06 0 0 0-.093 1.264c.02.377.097.703.228.978.127.278.306.502.536.673.23.174.504.29.823.35.319.06.615.049.888-.031.273-.076.52-.221.743-.433.218-.21.406-.487.566-.83.159-.34.282-.744.37-1.213l.088-.472c.087-.469.119-.892.094-1.27a2.792 2.792 0 0 0-.232-.991 1.844 1.844 0 0 0-.541-.679c-.227-.17-.5-.284-.818-.344a1.959 1.959 0 0 0-.893.024c-.273.08-.519.227-.738.44-.219.218-.407.499-.562.843-.16.344-.283.75-.37 1.218ZM46.503 122.059l-1.377-.499 1.943-5.36c.22-.61.538-1.073.951-1.388a2.653 2.653 0 0 1 1.417-.54 3.85 3.85 0 0 1 1.627.241c.577.209 1.053.498 1.43.867.377.373.62.813.732 1.319.108.504.052 1.061-.17 1.671l-1.942 5.36-1.377-.499 1.942-5.36c.14-.386.19-.728.148-1.025a1.32 1.32 0 0 0-.365-.749 2.07 2.07 0 0 0-.795-.488 2.034 2.034 0 0 0-.918-.133c-.285.03-.538.143-.76.342-.222.201-.403.495-.543.881l-1.943 5.36ZM40.033 113.362l-1.28-.713a3.38 3.38 0 0 1 1.136-1.077 2.79 2.79 0 0 1 1.477-.352c.541.015 1.112.19 1.713.524.46.256.83.569 1.108.938.275.373.46.784.554 1.234.091.453.087.936-.014 1.447a5.52 5.52 0 0 1-.605 1.568l-.345.62a5.403 5.403 0 0 1-1.019 1.337c-.384.354-.795.61-1.232.769-.44.163-.89.222-1.354.179a3.585 3.585 0 0 1-1.401-.458c-.594-.33-1.035-.719-1.323-1.165a2.71 2.71 0 0 1-.448-1.436 3.674 3.674 0 0 1 .318-1.56l1.28.712c-.145.34-.222.657-.233.95-.015.291.055.558.21.801.154.247.41.469.768.669.294.163.58.251.86.263.279.013.55-.046.815-.176.265-.13.521-.329.769-.598.243-.267.474-.599.694-.995l.35-.63c.21-.375.367-.735.473-1.078.101-.342.144-.66.13-.954a1.7 1.7 0 0 0-.251-.804 1.795 1.795 0 0 0-.674-.609c-.365-.203-.693-.309-.982-.319a1.332 1.332 0 0 0-.8.219c-.244.159-.476.39-.694.694ZM30.568 110.262l.74-.901 3.501 2.873-.74.902-3.5-2.874Zm.96 5.397 5.413-6.595 1.136.933-5.412 6.595-1.137-.933Zm-4.094-3.36 5.412-6.595 1.132.929-5.412 6.595-1.132-.929ZM11.936 85.765l3.059-1.121c.192.058.422.176.69.352.264.174.533.435.806.784.274.349.519.819.735 1.41.184.502.269.993.254 1.473-.02.481-.138.934-.357 1.36-.22.422-.536.802-.948 1.14-.417.34-.93.622-1.538.845l-.556.204c-.605.222-1.171.344-1.7.367a3.655 3.655 0 0 1-1.452-.216 2.938 2.938 0 0 1-1.127-.76 3.739 3.739 0 0 1-.765-1.286c-.24-.656-.33-1.24-.267-1.75.057-.511.236-.955.535-1.331a3.51 3.51 0 0 1 1.157-.93l.496 1.353c-.263.146-.48.324-.653.533-.175.205-.281.448-.32.729-.043.278.003.602.139.972.117.32.28.578.49.776.21.197.461.334.755.41.293.07.622.085.99.042a5.312 5.312 0 0 0 1.2-.303l.566-.207c.44-.162.814-.35 1.121-.568.306-.22.544-.461.714-.723.17-.266.267-.55.294-.85.023-.3-.024-.612-.143-.934a3.435 3.435 0 0 0-.361-.748 1.942 1.942 0 0 0-.368-.408 1.593 1.593 0 0 0-.323-.2l-1.59.583.611 1.667-1.028.377-1.116-3.042ZM12.287 76.49l1.14-.24.934 4.432-1.14.24-.934-4.431Zm-6.36 5.543 8.348-1.758.303 1.44-8.348 1.757-.303-1.439Zm2.76-4.18 1.124-.236.812 3.853-1.124.236-.811-3.853Zm-3.601.184 1.146-.242.928 4.404-1.147.242-.927-4.404ZM3.809 71.402l8.515-.526.09 1.456-8.515.526-.09-1.456Zm-.165-2.672 1.17-.073.418 6.778-1.17.073-.418-6.778ZM3.578 59.513l8.474.984-.17 1.461-8.474-.984.17-1.461ZM5.37 48.698l8.163 2.48-.427 1.407-6.96 1.884 5.847 1.777-.427 1.407-8.163-2.48.428-1.407 6.974-1.892-5.859-1.78.424-1.396ZM9.878 36.617l7.361 4.312-.737 1.259-7.362-4.312.738-1.26Zm1.353-2.31 1.011.592-3.432 5.86-1.011-.593 3.432-5.86ZM19.565 29.02l.356.305c.489.42.873.86 1.152 1.32.279.461.453.927.522 1.399.072.468.04.929-.097 1.382-.14.452-.382.877-.726 1.277-.34.398-.723.7-1.148.907a3.225 3.225 0 0 1-1.355.311c-.48.007-.97-.09-1.473-.29-.5-.203-.995-.514-1.484-.934l-.356-.305c-.489-.42-.87-.86-1.144-1.321a3.814 3.814 0 0 1-.518-1.402 3.13 3.13 0 0 1 .101-1.388c.137-.453.376-.879.717-1.276.343-.4.729-.703 1.156-.907.425-.207.877-.311 1.356-.312.477-.003.963.098 1.461.304.497.2.99.51 1.48.93Zm-.602 1.421-.364-.312a5.07 5.07 0 0 0-1.048-.714 2.587 2.587 0 0 0-.962-.292 1.69 1.69 0 0 0-.85.127c-.266.112-.504.29-.715.537-.211.246-.35.507-.418.784-.07.274-.07.56.003.86.073.294.217.595.435.906.215.307.503.616.865.927l.364.313c.362.31.713.549 1.053.717.34.168.664.266.974.295.309.024.595-.019.858-.128.26-.111.496-.29.707-.536.214-.249.356-.51.427-.784a1.753 1.753 0 0 0-.012-.86 2.787 2.787 0 0 0-.448-.909 5.138 5.138 0 0 0-.869-.93ZM22.368 19.93l1.119-.945 3.68 4.354c.419.495.662 1 .73 1.516a2.65 2.65 0 0 1-.238 1.497 3.846 3.846 0 0 1-1.019 1.291c-.468.396-.957.666-1.465.809a2.62 2.62 0 0 1-1.507-.022c-.491-.158-.946-.484-1.365-.98l-3.68-4.354 1.118-.945 3.68 4.354c.266.313.537.526.816.638.277.109.554.128.831.057.278-.071.55-.22.82-.447.268-.227.459-.47.572-.73a1.32 1.32 0 0 0 .082-.828c-.064-.294-.229-.598-.494-.91l-3.68-4.355ZM33.182 18.602l1.255-.754c.248.503.37 1.01.368 1.522a2.79 2.79 0 0 1-.431 1.455c-.283.462-.72.87-1.309 1.224a3.47 3.47 0 0 1-1.365.492c-.46.053-.909.008-1.346-.135a3.658 3.658 0 0 1-1.247-.734 5.526 5.526 0 0 1-1.058-1.306l-.365-.607a5.403 5.403 0 0 1-.651-1.55 3.678 3.678 0 0 1-.052-1.453c.078-.461.251-.882.52-1.262.271-.382.637-.71 1.095-.986.583-.35 1.14-.539 1.67-.566.53-.027 1.02.082 1.469.328.451.243.849.595 1.193 1.053l-1.256.755a2.711 2.711 0 0 0-.707-.676 1.328 1.328 0 0 0-.8-.217c-.29.01-.61.12-.962.332a1.942 1.942 0 0 0-.657.613c-.15.236-.235.501-.254.795-.019.294.026.616.135.965.111.344.283.71.517 1.098l.37.618c.222.368.455.684.7.947.245.258.5.454.762.588.267.131.54.193.822.183.28-.01.569-.103.864-.28.358-.215.613-.446.766-.693.156-.248.225-.515.209-.802a2.658 2.658 0 0 0-.255-.947ZM40.47 11.98l.413 1.09-4.235 1.607-.413-1.09 4.234-1.607Zm-5.16-1.852 3.027 7.976-1.375.522-3.027-7.976 1.375-.522Zm4.953-1.88 3.027 7.976-1.37.52-3.027-7.976 1.37-.52Z"/></svg><svg fill="none" viewBox="0 0 128 128" id="linked_path-light" xmlns="http://www.w3.org/2000/svg"><path fill="#fff" d="m50.029 80.443-2.725-2.726L76.6 48.42l2.725 2.725z"/><path fill="#fff" d="M52.891 51.963v-3.854h26.98v3.854z"/><path fill="#fff" d="M79.891 75.109h-3.854v-26.98h3.854zM71.427 8.064l-.574 3.207a2.833 2.833 0 0 1-.652.42c-.283.14-.644.24-1.084.3-.439.06-.968.035-1.587-.076a3.895 3.895 0 0 1-1.4-.524 3.221 3.221 0 0 1-.995-.994 3.676 3.676 0 0 1-.507-1.394c-.084-.53-.068-1.115.046-1.754l.104-.582c.113-.635.293-1.186.54-1.654.25-.47.557-.852.919-1.145.362-.292.77-.489 1.225-.59a3.74 3.74 0 0 1 1.496-.012c.688.123 1.237.34 1.645.651.413.308.707.686.88 1.134.174.448.248.937.22 1.468l-1.419-.254c.006-.3-.037-.578-.13-.833a1.396 1.396 0 0 0-.469-.643c-.218-.178-.521-.302-.91-.371a1.98 1.98 0 0 0-.916.032c-.276.082-.521.23-.735.446-.209.217-.387.494-.535.833a5.314 5.314 0 0 0-.344 1.188l-.106.594c-.083.462-.108.88-.076 1.255.036.375.124.703.265.982.144.28.34.507.586.682.248.171.54.287.879.348.33.059.606.08.827.064.222-.02.401-.057.538-.112a1.59 1.59 0 0 0 .336-.178l.298-1.667-1.748-.313.193-1.078 3.19.57ZM78.963 12.937l-.364 1.108-4.303-1.415.364-1.107 4.303 1.414Zm-1.608-8.281-2.664 8.104-1.397-.459 2.664-8.105 1.397.46Zm2.233 4.484-.358 1.09-3.741-1.229.359-1.09 3.74 1.229Zm1.647-3.209-.366 1.113-4.275-1.405.366-1.113 4.275 1.405ZM87.712 8.167 83.9 15.798l-1.305-.652 3.813-7.631 1.305.652Zm2.396 1.197-.524 1.048-6.075-3.036.524-1.048 6.075 3.036ZM98.235 14.008l-5.118 6.825-1.177-.883 5.119-6.825 1.176.883ZM106.492 20.817l-6.227 5.832-1.005-1.073 1.844-6.97-4.46 4.178-1.005-1.074 6.226-5.832 1.006 1.074-1.846 6.986 4.469-4.185.998 1.064ZM114.794 30.864l-7.408 4.23-.724-1.267 7.409-4.23.723 1.267Zm1.328 2.325-1.018.581-3.367-5.897 1.017-.581 3.368 5.897ZM116.491 42.923l-.442.156a5.543 5.543 0 0 1-1.719.341 3.742 3.742 0 0 1-1.472-.243 3.095 3.095 0 0 1-1.15-.774 3.587 3.587 0 0 1-.746-1.265 3.575 3.575 0 0 1-.214-1.447c.037-.469.172-.912.405-1.33.233-.419.562-.796.986-1.133.425-.332.941-.606 1.549-.821l.442-.157c.607-.215 1.179-.326 1.715-.333a3.812 3.812 0 0 1 1.474.249c.448.177.832.437 1.152.779.326.345.575.764.75 1.257.176.498.246.982.21 1.455a3.064 3.064 0 0 1-.405 1.33 3.753 3.753 0 0 1-.991 1.116c-.422.331-.936.605-1.544.82Zm-.932-1.23.453-.16a5.062 5.062 0 0 0 1.14-.553c.316-.208.56-.437.732-.688.178-.25.282-.517.314-.801a1.935 1.935 0 0 0-.109-.888 1.891 1.891 0 0 0-.472-.753 1.749 1.749 0 0 0-.747-.425 2.734 2.734 0 0 0-1.002-.074 5.069 5.069 0 0 0-1.235.287l-.453.16a5.144 5.144 0 0 0-1.146.556c-.315.21-.562.443-.741.697-.175.256-.28.526-.317.808-.033.281.004.575.112.88.11.31.266.563.469.76.206.197.456.337.75.419.298.08.635.102 1.012.065.377-.035.79-.131 1.24-.29ZM122.995 49.982l.258 1.442-5.612 1.004c-.638.114-1.198.072-1.678-.128s-.872-.519-1.177-.956a3.85 3.85 0 0 1-.607-1.529c-.107-.603-.096-1.161.035-1.673.134-.512.392-.943.774-1.293.383-.346.893-.576 1.531-.69l5.613-1.004.257 1.442-5.612 1.003c-.403.073-.724.201-.96.387a1.322 1.322 0 0 0-.466.69 2.068 2.068 0 0 0-.024.933c.062.346.177.633.345.86.168.233.394.395.676.487.286.092.631.101 1.035.03l5.612-1.005ZM118.707 59.826l.029 1.464a3.376 3.376 0 0 1-1.503-.44 2.786 2.786 0 0 1-1.047-1.099c-.259-.475-.396-1.057-.409-1.744a3.478 3.478 0 0 1 .254-1.429c.183-.425.446-.792.787-1.1a3.66 3.66 0 0 1 1.258-.715 5.525 5.525 0 0 1 1.66-.267l.708-.013a5.4 5.4 0 0 1 1.669.208c.499.154.927.38 1.285.678.361.298.639.658.835 1.08.196.426.299.907.309 1.442.013.68-.101 1.256-.342 1.73-.24.473-.579.843-1.015 1.109-.437.27-.939.44-1.508.51l-.029-1.465a2.7 2.7 0 0 0 .938-.276c.26-.134.455-.33.587-.586.136-.256.2-.59.192-1a1.946 1.946 0 0 0-.205-.875 1.655 1.655 0 0 0-.563-.616 2.646 2.646 0 0 0-.903-.363 5.335 5.335 0 0 0-1.209-.1l-.721.014a5.69 5.69 0 0 0-1.17.134 2.862 2.862 0 0 0-.889.368 1.694 1.694 0 0 0-.568.62 1.791 1.791 0 0 0-.188.89c.008.417.081.754.219 1.009.137.26.335.453.591.58.26.132.576.216.948.252ZM120.783 69.808l-1.151-.188.729-4.47 1.151.188-.729 4.47Zm4.186-3.538-8.42-1.373.237-1.452 8.42 1.373-.237 1.452Zm-.852 5.228-8.42-1.374.235-1.445 8.42 1.373-.235 1.446ZM108.782 98.312l-2.495-2.094a2.829 2.829 0 0 1-.039-.774c.02-.315.113-.678.279-1.09.167-.41.452-.857.856-1.339.344-.41.728-.727 1.152-.953a3.222 3.222 0 0 1 1.357-.368c.475-.02.962.065 1.461.255.502.191 1.002.496 1.499.913l.453.38c.494.414.882.845 1.165 1.291.284.452.462.908.536 1.367.073.46.04.912-.098 1.357-.138.45-.383.884-.735 1.303-.449.536-.91.903-1.384 1.103a2.55 2.55 0 0 1-1.421.199 3.514 3.514 0 0 1-1.383-.54l.927-1.105c.257.155.52.256.787.302.265.049.529.02.791-.086.263-.1.522-.302.775-.604.219-.26.361-.531.428-.811s.06-.567-.021-.86a2.778 2.778 0 0 0-.455-.879 5.32 5.32 0 0 0-.86-.89l-.462-.387a4.821 4.821 0 0 0-1.05-.69 2.757 2.757 0 0 0-.984-.26 1.876 1.876 0 0 0-.883.17 2.2 2.2 0 0 0-.739.588 3.422 3.422 0 0 0-.468.685 1.93 1.93 0 0 0-.171.523c-.02.151-.024.278-.012.38l1.297 1.088 1.141-1.36.839.704-2.083 2.482ZM100.528 102.657l-.779-.869 3.373-3.023.778.868-3.372 3.024Zm7.979 2.738-5.695-6.352 1.095-.982 5.695 6.352-1.095.982Zm-5-.302-.767-.855 2.932-2.629.766.856-2.931 2.628Zm1.959 3.028-.782-.873 3.35-3.003.783.872-3.351 3.004ZM100.455 112.45l-4.737-7.095 1.213-.81 4.737 7.095-1.213.81Zm-2.227 1.487-.65-.975 5.647-3.77.651.974-5.648 3.771ZM90.27 118.605l-3.382-7.832 1.35-.583 3.382 7.832-1.35.583ZM79.948 122.455l-1.917-8.313 1.433-.331 5.102 5.095-1.373-5.955 1.433-.33 1.917 8.313-1.433.33-5.116-5.104 1.376 5.967-1.422.328ZM67.1 124.557l.066-8.531 1.459.011-.066 8.531-1.459-.011Zm-2.677-.021.009-1.172 6.79.053-.009 1.171-6.79-.052ZM55.772 119.95l.086-.461a5.546 5.546 0 0 1 .566-1.658c.26-.473.575-.857.949-1.152.369-.297.784-.5 1.246-.608.46-.105.95-.109 1.468-.012.515.096.968.276 1.36.54.387.267.703.606.948 1.018.245.411.407.884.486 1.42.075.534.053 1.118-.065 1.752l-.086.461c-.118.633-.309 1.184-.57 1.651a3.8 3.8 0 0 1-.955 1.151 3.125 3.125 0 0 1-1.252.607 3.51 3.51 0 0 1-1.464.019 3.53 3.53 0 0 1-1.364-.547 3.06 3.06 0 0 1-.948-1.018 3.74 3.74 0 0 1-.469-1.416c-.076-.531-.054-1.113.064-1.747Zm1.532-.191-.088.473a5.065 5.065 0 0 0-.093 1.264c.02.377.097.703.228.978.127.278.306.502.536.673.23.174.504.29.823.35.319.06.614.049.888-.031.272-.076.52-.221.742-.433.218-.21.407-.487.567-.83.159-.34.282-.744.37-1.213l.087-.472c.088-.469.12-.892.095-1.27a2.794 2.794 0 0 0-.233-.991 1.844 1.844 0 0 0-.54-.679c-.227-.17-.5-.284-.818-.344a1.959 1.959 0 0 0-.893.024c-.273.08-.52.227-.738.44-.22.218-.407.499-.563.843-.16.344-.283.75-.37 1.218ZM46.504 122.059l-1.377-.499 1.942-5.36c.221-.61.538-1.073.952-1.388a2.652 2.652 0 0 1 1.417-.54 3.85 3.85 0 0 1 1.627.241c.576.209 1.053.498 1.43.867.376.373.62.813.732 1.319.108.504.051 1.061-.17 1.671l-1.942 5.36-1.378-.499 1.943-5.36c.14-.386.189-.728.147-1.025a1.32 1.32 0 0 0-.364-.749 2.07 2.07 0 0 0-.796-.488 2.034 2.034 0 0 0-.917-.133c-.285.03-.538.143-.76.342-.223.201-.404.495-.544.881l-1.942 5.36ZM40.033 113.362l-1.28-.713a3.38 3.38 0 0 1 1.137-1.077c.443-.25.935-.367 1.476-.352.541.015 1.113.19 1.713.524.461.256.83.569 1.108.938.275.373.46.784.554 1.234.092.453.087.936-.014 1.447a5.52 5.52 0 0 1-.605 1.568l-.344.62a5.403 5.403 0 0 1-1.02 1.337c-.384.354-.795.61-1.232.769-.44.163-.89.222-1.354.179a3.585 3.585 0 0 1-1.401-.458c-.594-.33-1.035-.719-1.323-1.165a2.71 2.71 0 0 1-.448-1.436 3.675 3.675 0 0 1 .318-1.56l1.28.712c-.144.34-.222.657-.233.95-.015.291.055.558.21.801.154.247.41.469.769.669.293.163.58.251.859.263.28.013.551-.046.816-.176.264-.13.52-.329.768-.598.243-.267.474-.599.695-.995l.35-.63c.21-.375.367-.735.473-1.078.1-.342.143-.66.128-.954a1.7 1.7 0 0 0-.25-.804c-.149-.239-.373-.442-.673-.609-.366-.203-.693-.309-.983-.319a1.332 1.332 0 0 0-.8.219c-.244.159-.475.39-.694.694ZM30.568 110.262l.74-.901 3.501 2.873-.74.902-3.5-2.874Zm.96 5.397 5.413-6.595 1.137.933-5.413 6.595-1.136-.933Zm-4.094-3.36 5.412-6.595 1.133.929-5.413 6.595-1.132-.929ZM11.936 85.765l3.059-1.121c.192.058.422.176.69.352.264.174.532.435.806.784.273.349.518.819.735 1.41.184.502.269.993.253 1.473-.019.481-.138.934-.356 1.36-.22.422-.536.802-.949 1.14-.416.34-.928.622-1.537.845l-.556.204c-.605.222-1.172.344-1.7.367a3.656 3.656 0 0 1-1.452-.216 2.938 2.938 0 0 1-1.128-.76 3.738 3.738 0 0 1-.764-1.286c-.241-.656-.33-1.24-.267-1.75.057-.511.236-.955.535-1.331a3.51 3.51 0 0 1 1.156-.93l.497 1.353c-.263.146-.48.324-.654.533-.174.205-.28.448-.32.729-.043.278.003.602.14.972.116.32.28.578.49.776.21.197.461.334.755.41.292.07.622.085.99.042a5.31 5.31 0 0 0 1.199-.303l.566-.207c.44-.162.814-.35 1.122-.568.306-.22.544-.461.714-.723.169-.266.267-.55.294-.85.023-.3-.025-.612-.143-.934a3.434 3.434 0 0 0-.361-.748 1.937 1.937 0 0 0-.368-.408 1.592 1.592 0 0 0-.323-.2l-1.59.583.611 1.667-1.029.377-1.115-3.042ZM12.287 76.49l1.14-.24.934 4.432-1.141.24-.933-4.431Zm-6.36 5.543 8.348-1.758.303 1.44-8.348 1.757-.303-1.439Zm2.76-4.18 1.124-.236.812 3.853-1.124.236-.812-3.853Zm-3.601.184 1.146-.242.928 4.404-1.147.242-.928-4.404ZM3.81 71.402l8.514-.526.09 1.456-8.515.526-.09-1.456Zm-.166-2.672 1.17-.073.419 6.778-1.17.073-.419-6.778ZM3.578 59.513l8.474.984-.17 1.461-8.473-.984.17-1.461ZM5.37 48.698l8.163 2.48-.427 1.407-6.96 1.884 5.848 1.777-.428 1.407-8.163-2.48.428-1.407 6.974-1.892-5.859-1.78.424-1.396ZM9.878 36.617l7.36 4.312-.736 1.259-7.362-4.312.738-1.26Zm1.353-2.31 1.011.592-3.432 5.86-1.011-.593 3.432-5.86ZM19.565 29.02l.356.305c.489.42.873.86 1.152 1.32.28.461.453.927.523 1.399.071.468.039.929-.098 1.382-.14.452-.382.877-.725 1.277-.341.398-.724.7-1.148.907a3.226 3.226 0 0 1-1.356.311c-.48.007-.97-.09-1.473-.29-.5-.203-.995-.514-1.484-.934l-.356-.305c-.489-.42-.87-.86-1.144-1.321a3.815 3.815 0 0 1-.518-1.402 3.13 3.13 0 0 1 .101-1.388c.137-.453.376-.879.717-1.276a3.53 3.53 0 0 1 1.157-.907c.424-.207.876-.311 1.355-.312.477-.003.964.098 1.461.304.498.2.99.51 1.48.93Zm-.602 1.421-.364-.312a5.067 5.067 0 0 0-1.048-.714 2.587 2.587 0 0 0-.962-.292 1.69 1.69 0 0 0-.85.127c-.266.112-.504.29-.715.537-.211.246-.35.507-.418.784-.07.274-.07.56.003.86.073.294.218.595.435.906.215.307.503.616.865.927l.364.313c.362.31.713.549 1.053.717.34.168.664.266.974.295.31.024.595-.019.858-.128.26-.111.496-.29.707-.536.214-.249.356-.51.427-.784a1.753 1.753 0 0 0-.012-.86 2.787 2.787 0 0 0-.448-.909 5.138 5.138 0 0 0-.869-.93ZM22.368 19.93l1.119-.945 3.68 4.354c.419.495.662 1 .73 1.516a2.65 2.65 0 0 1-.238 1.497 3.846 3.846 0 0 1-1.019 1.291c-.468.396-.956.666-1.465.809a2.62 2.62 0 0 1-1.507-.022c-.491-.158-.946-.484-1.365-.98l-3.68-4.354 1.118-.945 3.68 4.354c.266.313.538.526.816.638.277.109.554.128.831.057.278-.071.55-.22.82-.447.268-.227.459-.47.572-.73a1.32 1.32 0 0 0 .082-.828c-.064-.294-.229-.598-.493-.91l-3.681-4.355ZM33.182 18.602l1.256-.754c.247.503.37 1.01.367 1.522a2.79 2.79 0 0 1-.431 1.455c-.283.462-.72.87-1.309 1.224a3.47 3.47 0 0 1-1.365.492c-.46.053-.909.008-1.346-.135a3.658 3.658 0 0 1-1.247-.734 5.526 5.526 0 0 1-1.058-1.306l-.365-.607a5.403 5.403 0 0 1-.651-1.55 3.68 3.68 0 0 1-.052-1.453 3.04 3.04 0 0 1 .52-1.262c.272-.382.637-.71 1.096-.986.582-.35 1.139-.539 1.67-.566.53-.027 1.02.082 1.468.328.451.243.85.595 1.193 1.053l-1.256.755a2.71 2.71 0 0 0-.707-.676 1.328 1.328 0 0 0-.8-.217c-.29.01-.61.12-.962.332a1.942 1.942 0 0 0-.657.613c-.15.236-.234.501-.254.795-.019.294.026.616.135.965.111.344.283.71.517 1.098l.37.618c.222.368.455.684.7.947.246.258.5.454.763.588.266.131.54.193.82.183.282-.01.57-.103.865-.28.358-.215.613-.446.766-.693.156-.248.226-.515.209-.802a2.66 2.66 0 0 0-.255-.947ZM40.47 11.98l.413 1.09-4.234 1.607-.414-1.09 4.235-1.607Zm-5.16-1.852 3.028 7.976-1.375.522-3.027-7.976 1.375-.522Zm4.953-1.88 3.027 7.976-1.37.52-3.026-7.976 1.369-.52Z"/></svg><svg fill="none" viewBox="0 0 54 54" id="marker" xmlns="http://www.w3.org/2000/svg"><ellipse cx="27" cy="50.5" rx="13" ry="2.5" fill="#2D3C52" fill-opacity=".2"/><path d="M29.645 43.19c1.513-2.18 3.82-3.63 6.205-4.791C42.456 35.18 47 28.47 47 20.713 47 9.826 38.046 1 27 1S7 9.826 7 20.714c0 7.756 4.544 14.466 11.15 17.684 2.386 1.163 4.692 2.612 6.205 4.792L27 47l2.645-3.81Z" fill="#F5F5FF"/><circle cx="27" cy="21" r="12.5" fill="#1463FF"/></svg><svg fill="none" viewBox="0 0 14 3" id="more-icon" xmlns="http://www.w3.org/2000/svg"><path d="M1.668.03C.867.03.211.686.211 1.487c0 .802.656 1.458 1.457 1.458.802 0 1.458-.656 1.458-1.458C3.126.686 2.47.03 1.668.03ZM11.87.03c-.802 0-1.458.656-1.458 1.457 0 .802.656 1.458 1.457 1.458.802 0 1.457-.656 1.457-1.458 0-.801-.655-1.457-1.457-1.457ZM6.769.03C5.967.03 5.31.686 5.31 1.487c0 .802.656 1.458 1.458 1.458.801 0 1.457-.656 1.457-1.458C8.226.686 7.57.03 6.769.03Z" fill="#7E8492"/></svg><svg fill="none" viewBox="0 0 33 33" id="overview--calendar" xmlns="http://www.w3.org/2000/svg"><path d="M28.16 4.83c1.84 0 3.34 1.49 3.34 3.33v20c0 1.84-1.5 3.34-3.34 3.34H4.83c-1.84 0-3.33-1.5-3.33-3.34v-20c0-1.84 1.49-3.33 3.33-3.33h23.33ZM9.83 8.16V1.5m13.33 6.66V1.5m-15 13.33h16.67" stroke="#FFF" stroke-width="3" stroke-linejoin="round" stroke-linecap="round"/></svg><svg fill="none" viewBox="0 0 26.333 33" id="overview--check-desk" xmlns="http://www.w3.org/2000/svg"><path d="M18.16 4.83h3.34c1.84 0 3.33 1.49 3.33 3.33v20c0 1.84-1.49 3.34-3.33 3.34H4.83c-1.84 0-3.33-1.5-3.33-3.34v-20c0-1.84 1.49-3.33 3.33-3.33h3.33m0 15 3.34 3.33 6.66-6.66m-3.33-15c1.84 0 3.33 1.49 3.33 3.33s-1.49 3.33-3.33 3.33H11.5a3.331 3.331 0 1 1 0-6.66h3.33Z" stroke="#FFF" stroke-width="3" stroke-linecap="round"/></svg><svg viewBox="0 0 26.334 33" fill="none" id="overview--list-desk" xmlns="http://www.w3.org/2000/svg"><path d="M18.16 4.83h3.34c1.84 0 3.33 1.49 3.33 3.33v20c0 1.84-1.49 3.34-3.33 3.34H4.83c-1.84 0-3.33-1.5-3.33-3.34v-20c0-1.84 1.49-3.33 3.33-3.33h3.33m5 11.67h5m-5 6.66h5M14.83 1.5c1.84 0 3.33 1.49 3.33 3.33s-1.49 3.33-3.33 3.33H11.5a3.331 3.331 0 1 1 0-6.66h3.33Zm-6.67 15h.02m-.02 6.66h.02" stroke="#FFF" stroke-width="3" stroke-linejoin="round" stroke-linecap="round"/></svg><svg fill="none" viewBox="0 0 33 32.463" id="overview--shield-check" xmlns="http://www.w3.org/2000/svg"><path d="M29.83 6.59c-5.12 0-9.8-1.93-13.33-5.09A19.982 19.982 0 0 1 3.16 6.59c-.34 0-.69-.01-1.03-.03-.41 1.61-.63 3.29-.63 5.03 0 9.32 6.37 17.15 15 19.37 8.62-2.22 15-10.05 15-19.37 0-1.74-.23-3.42-.64-5.03-.34.02-.69.03-1.03.03Zm-18.33 10 3.33 3.33 6.67-6.67" stroke="#FFF" stroke-width="3" stroke-linejoin="round" stroke-linecap="round"/></svg><svg fill="none" viewBox="0 0 98 30" id="partners--1" xmlns="http://www.w3.org/2000/svg"><path d="M28.29 21.262c-.153-.366-.295-.75-.447-1.079l-.704-1.565-.028-.028c-2.091-4.5-4.325-9.075-6.691-13.575l-.095-.188c-.238-.44-.475-.928-.723-1.378-.304-.534-.598-1.106-1.083-1.65A5.028 5.028 0 0 0 16.78.457a5.095 5.095 0 0 0-4.312 0A5.027 5.027 0 0 0 10.726 1.8c-.447.544-.78 1.116-1.084 1.65-.237.488-.475.966-.722 1.406l-.095.188c-2.329 4.5-4.6 9.075-6.69 13.575l-.058.056c-.209.488-.456.994-.694 1.538-.152.328-.304.684-.456 1.078a6.295 6.295 0 0 0-.38 3.246 6.33 6.33 0 0 0 1.3 3.005c.69.874 1.6 1.555 2.639 1.976a6.545 6.545 0 0 0 3.284.426 8.038 8.038 0 0 0 3.022-1.031c1.236-.685 2.424-1.678 3.754-3.113 1.331 1.434 2.547 2.428 3.755 3.122a8.046 8.046 0 0 0 3.82 1.078 6.507 6.507 0 0 0 4.245-1.548 6.342 6.342 0 0 0 2.17-3.918 5.497 5.497 0 0 0-.247-3.28v.009ZM14.64 22.818c-1.634-2.063-2.699-3.956-3.06-5.578a4.81 4.81 0 0 1-.095-1.838c.067-.478.247-.9.494-1.256.57-.816 1.569-1.322 2.661-1.322a3.171 3.171 0 0 1 1.499.325c.464.23.864.569 1.163.988.247.375.427.787.484 1.265.095.544.057 1.172-.095 1.838-.36 1.594-1.425 3.506-3.05 5.578Zm12.109 1.387a4.43 4.43 0 0 1-.903 2.12 4.517 4.517 0 0 1-1.854 1.396c-.722.3-1.52.384-2.3.3a6.006 6.006 0 0 1-2.3-.788 14.811 14.811 0 0 1-3.45-2.906c1.996-2.437 3.203-4.66 3.66-6.637a7.255 7.255 0 0 0 .152-2.56 5.145 5.145 0 0 0-.818-2.062 5.076 5.076 0 0 0-1.863-1.594 5.152 5.152 0 0 0-2.404-.544c-1.758 0-3.326.807-4.277 2.129a4.818 4.818 0 0 0-.808 2.071 6.09 6.09 0 0 0 .152 2.56c.457 1.978 1.692 4.228 3.66 6.656a13.57 13.57 0 0 1-3.45 2.925c-.79.45-1.54.684-2.3.778a4.57 4.57 0 0 1-3.324-.882 4.45 4.45 0 0 1-1.733-2.934c-.095-.75-.028-1.5.276-2.343.095-.3.238-.6.39-.957.209-.487.456-.993.693-1.5l.038-.065a304.973 304.973 0 0 1 6.625-13.51l.095-.187c.237-.45.475-.928.722-1.378.247-.478.513-.938.855-1.313a3.15 3.15 0 0 1 1.084-.821 3.192 3.192 0 0 1 3.754.821c.333.375.608.835.855 1.313.238.45.476.937.723 1.378l.095.188a369.388 369.388 0 0 1 6.652 13.509l.029.028c.247.488.456 1.031.694 1.5.152.366.304.656.399.966.18.843.276 1.593.18 2.343Zm13.23-1.593a4.827 4.827 0 0 1-2.076-.436 4.763 4.763 0 0 1-1.679-1.28 6.09 6.09 0 0 1-1.52-4.2 6.471 6.471 0 0 1 1.577-4.294 5.03 5.03 0 0 1 1.743-1.296 5.096 5.096 0 0 1 2.135-.447 4.133 4.133 0 0 1 1.994.451 4.069 4.069 0 0 1 1.522 1.349l.095-1.472h2.776v11.325h-2.785l-.095-1.65a4.275 4.275 0 0 1-1.587 1.447 4.344 4.344 0 0 1-2.1.503Zm.722-2.7c.55 0 1.035-.15 1.492-.422.418-.3.76-.694 1.026-1.172.238-.478.361-1.05.361-1.688a3.168 3.168 0 0 0-.317-1.606 3.219 3.219 0 0 0-1.08-1.244 2.832 2.832 0 0 0-2.965 0c-.418.3-.76.694-1.027 1.172a3.717 3.717 0 0 0-.36 1.688 3.168 3.168 0 0 0 .316 1.607c.245.5.617.928 1.08 1.243.447.272.932.422 1.474.422ZM51.297 7.93c0 .329-.056.629-.209.872-.152.235-.36.45-.636.6-.276.15-.57.207-.875.207-.304 0-.608-.057-.884-.207-.26-.143-.48-.35-.636-.6a1.688 1.688 0 0 1-.21-.872c0-.337.067-.637.21-.871.152-.282.37-.45.636-.6.276-.15.57-.216.884-.216.303-.007.602.064.868.205.267.141.492.348.653.601.138.273.207.576.2.881Zm-3.23 14.344V10.968h3.021v11.325h-3.031l.01-.019Zm11.1-8.344v.038c-.143-.066-.333-.094-.475-.122-.19-.037-.343-.037-.523-.037-.846 0-1.483.243-1.9.75-.457.515-.666 1.237-.666 2.165v5.56h-3.032V10.959h2.785l.095 1.715c.304-.6.665-1.05 1.178-1.387a2.976 2.976 0 0 1 1.72-.47c.22 0 .428.02.609.057.095.028.152.028.209.056v3Zm1.216 8.344V6.318h3.023v6.094a4.775 4.775 0 0 1 1.52-1.294 4.83 4.83 0 0 1 3.106-.375 4.782 4.782 0 0 1 2.673 1.603 6.09 6.09 0 0 1 1.52 4.21 6.472 6.472 0 0 1-1.577 4.293 5.032 5.032 0 0 1-1.743 1.296 5.097 5.097 0 0 1-2.135.448 4.133 4.133 0 0 1-1.994-.452 4.068 4.068 0 0 1-1.522-1.348l-.096 1.472-2.775.028v-.019Zm5.845-2.362c.542 0 1.027-.15 1.483-.422.418-.3.76-.694 1.026-1.172.248-.478.362-1.05.362-1.688 0-.628-.114-1.2-.362-1.678a3.53 3.53 0 0 0-1.026-1.172 2.833 2.833 0 0 0-2.965 0c-.428.3-.76.694-1.036 1.172a3.716 3.716 0 0 0-.361 1.688 3.169 3.169 0 0 0 .317 1.607c.245.5.617.928 1.08 1.243.446.272.931.422 1.482.422Zm7.138 2.372V10.959h2.785l.095 1.471a3.742 3.742 0 0 1 1.437-1.337 3.806 3.806 0 0 1 1.927-.434 3.937 3.937 0 0 1 2.165.603 3.86 3.86 0 0 1 1.466 1.684c.332.713.513 1.594.513 2.578v6.788h-3.032v-6.394c0-.788-.18-1.406-.542-1.866-.36-.45-.855-.694-1.482-.694-.457 0-.856.094-1.207.3a2.354 2.354 0 0 0-.818.872 2.502 2.502 0 0 0-.304 1.266v6.488h-3.003Zm11.899 0V6.309h3.032v6.093c.41-.546.945-.991 1.56-1.299a4.488 4.488 0 0 1 1.985-.473 4.827 4.827 0 0 1 2.075.436c.65.297 1.224.734 1.679 1.28a6.109 6.109 0 0 1 1.511 4.2 6.463 6.463 0 0 1-1.578 4.294 5.032 5.032 0 0 1-1.742 1.296 5.095 5.095 0 0 1-2.135.448 4.134 4.134 0 0 1-1.995-.452 4.067 4.067 0 0 1-1.522-1.349l-.085 1.472-2.785.029Zm5.873-2.372c.552 0 1.036-.15 1.483-.422.428-.3.76-.694 1.036-1.172.238-.478.361-1.05.361-1.688a3.168 3.168 0 0 0-.317-1.606 3.218 3.218 0 0 0-1.08-1.244 2.833 2.833 0 0 0-2.965 0c-.418.3-.76.694-1.027 1.172a3.364 3.364 0 0 0-.36 1.688 3.169 3.169 0 0 0 .316 1.607c.245.5.617.928 1.08 1.243.447.272.903.422 1.473.422Z" fill="#FF385C"/></svg><svg fill="none" viewBox="0 0 98 30" id="partners--2" xmlns="http://www.w3.org/2000/svg"><g clip-path="url(#aqa)" fill-rule="evenodd" clip-rule="evenodd"><path d="M60.64 23.461c-5.633 4.264-13.798 6.54-20.828 6.54-9.858 0-18.732-3.745-25.446-9.972-.527-.49-.055-1.157.578-.776 7.246 4.33 16.204 6.934 25.458 6.934 6.241 0 13.107-1.326 19.42-4.078.953-.416 1.751.641.819 1.352Z" fill="#F90"/><path d="M62.983 20.71c-.718-.945-4.76-.447-6.575-.226-.553.07-.637-.425-.139-.78 3.22-2.327 8.503-1.655 9.119-.875.616.784-.16 6.222-3.186 8.818-.464.399-.907.187-.7-.342.679-1.742 2.202-5.647 1.48-6.596Z" fill="#F90"/><path d="M56.535 3.276V1.014a.55.55 0 0 1 .557-.572h9.861c.317 0 .57.234.57.572v1.937c-.004.325-.27.75-.743 1.422l-5.11 7.492c1.899-.048 3.903.243 5.625 1.24.388.225.494.554.523.879v2.414c0 .329-.354.715-.725.515-3.035-1.633-7.064-1.811-10.42.018-.34.19-.7-.191-.7-.52v-2.293c0-.368.005-.996.363-1.555l5.92-8.72h-5.152a.553.553 0 0 1-.57-.567ZM20.56 17.39h-3a.574.574 0 0 1-.535-.524V1.053a.57.57 0 0 1 .578-.568H20.4a.572.572 0 0 1 .545.53V3.08H21c.73-1.998 2.101-2.93 3.95-2.93 1.877 0 3.05.932 3.894 2.93.726-1.998 2.376-2.93 4.144-2.93 1.258 0 2.633.534 3.473 1.73.95 1.33.755 3.263.755 4.957l-.004 9.98a.574.574 0 0 1-.578.572h-2.996a.579.579 0 0 1-.54-.572v-8.38c0-.668.059-2.332-.085-2.965-.223-1.061-.894-1.36-1.763-1.36-.726 0-1.486.498-1.794 1.295-.308.798-.278 2.132-.278 3.03v8.38a.574.574 0 0 1-.579.572h-2.995a.576.576 0 0 1-.54-.572l-.005-8.38c0-1.764.283-4.36-1.848-4.36-2.156 0-2.072 2.53-2.072 4.36v8.38a.574.574 0 0 1-.578.572M76.013.152c4.452 0 6.861 3.926 6.861 8.918 0 4.823-2.662 8.65-6.861 8.65-4.372 0-6.752-3.927-6.752-8.82 0-4.922 2.41-8.748 6.752-8.748Zm.025 3.228c-2.211 0-2.35 3.094-2.35 5.023 0 1.932-.03 6.058 2.325 6.058 2.325 0 2.435-3.328 2.435-5.356 0-1.335-.055-2.93-.448-4.195-.337-1.1-1.008-1.53-1.962-1.53ZM88.647 17.39H85.66a.579.579 0 0 1-.54-.572l-.005-15.817a.573.573 0 0 1 .578-.516h2.781a.578.578 0 0 1 .536.442v2.418h.055c.84-2.162 2.017-3.193 4.089-3.193 1.346 0 2.658.498 3.502 1.863.785 1.265.785 3.393.785 4.923v9.954a.581.581 0 0 1-.578.498h-3.009a.575.575 0 0 1-.531-.498v-8.59c0-1.728.194-4.259-1.878-4.259-.73 0-1.401.503-1.734 1.266-.422.966-.477 1.928-.477 2.994v8.515a.584.584 0 0 1-.587.572M48.673 9.837c0 1.2.03 2.201-.561 3.267-.477.867-1.236 1.4-2.076 1.4-1.152 0-1.827-.901-1.827-2.232 0-2.626 2.291-3.102 4.464-3.102v.667Zm3.026 7.51a.613.613 0 0 1-.71.073c-.995-.849-1.176-1.243-1.72-2.054-1.646 1.725-2.815 2.24-4.946 2.24-2.528 0-4.49-1.598-4.49-4.8 0-2.501 1.316-4.204 3.198-5.036 1.63-.737 3.904-.867 5.642-1.07v-.4c0-.731.055-1.598-.367-2.23-.363-.569-1.063-.803-1.684-.803-1.143 0-2.16.603-2.41 1.85-.05.278-.248.551-.522.564l-2.908-.32c-.244-.057-.519-.26-.447-.646C41.002 1.092 44.192 0 47.045 0c1.46 0 3.367.399 4.519 1.534 1.46 1.4 1.32 3.268 1.32 5.3v4.801c0 1.443.583 2.076 1.132 2.856.19.277.232.61-.013.819-.612.524-1.7 1.5-2.3 2.045l-.004-.008M9.34 9.837c0 1.2.03 2.202-.56 3.268-.478.866-1.233 1.4-2.077 1.4-1.152 0-1.823-.902-1.823-2.232 0-2.627 2.291-3.103 4.46-3.103v.667Zm3.026 7.51a.613.613 0 0 1-.709.073c-.996-.849-1.173-1.243-1.722-2.054-1.645 1.725-2.81 2.24-4.945 2.24-2.524 0-4.49-1.598-4.49-4.8 0-2.5 1.32-4.204 3.199-5.036 1.628-.737 3.903-.867 5.641-1.07V6.3c0-.732.055-1.599-.362-2.232-.368-.567-1.068-.801-1.684-.801-1.144 0-2.165.602-2.414 1.85-.05.277-.249.55-.519.563l-2.912-.32c-.244-.057-.514-.26-.447-.646C1.673 1.092 4.86 0 7.712 0c1.46 0 3.367.399 4.519 1.534 1.46 1.4 1.32 3.268 1.32 5.3v4.802c0 1.443.583 2.075 1.132 2.855.194.277.236.611-.009.82-.612.524-1.7 1.498-2.3 2.044l-.008-.008" fill="#1D1E25"/></g><defs><clipPath id="aqa"><path fill="#fff" transform="translate(.5)" d="M0 0h96.941v30H0z"/></clipPath></defs></svg><svg fill="none" viewBox="0 0 95 30" id="partners--3" xmlns="http://www.w3.org/2000/svg"><path d="m70.43 28.22 7.85-8.658-7.85-8.66h8.282l3.888 4.206 3.743-4.207h7.993l-7.812 8.625 7.919 8.695h-8.316l-3.852-4.241-3.816 4.24h-8.028ZM70.43 7.019h-8.89V10.9h8.89v5.851h-8.89v5.371h8.89v6.098H55.007V.938H70.43v6.08Z" fill="#F60"/><path d="M48.5.938v11.165h-.07c-1.441-1.625-3.24-2.19-5.329-2.19-4.277 0-7.5 2.855-8.63 6.63-1.29-4.16-4.617-6.708-9.55-6.708-4.005 0-7.168 1.765-8.82 4.642v-3.575H7.823V7.019h9.036V.938H.44V28.22h7.381V16.752h7.357c-.22.843-.337 1.745-.337 2.697 0 5.691 4.428 9.684 10.08 9.684 4.752 0 7.883-2.19 9.54-6.184h-6.325c-.856 1.2-1.505 1.556-3.215 1.556-1.984 0-3.694-1.699-3.694-3.713h12.88c.558 4.52 4.144 8.419 9.066 8.419a6.337 6.337 0 0 0 5.255-2.757h.072v1.767h6.506V.938h-6.506ZM21.434 16.834c.41-1.733 1.78-2.866 3.489-2.866 1.88 0 3.18 1.098 3.522 2.866h-7.01Zm23.12 7.233c-2.399 0-3.89-2.194-3.89-4.485 0-2.45 1.297-4.804 3.89-4.804 2.688 0 3.758 2.355 3.758 4.804 0 2.322-1.135 4.485-3.758 4.485Z" fill="#652C8F"/></svg><svg fill="none" viewBox="0 0 90 30" id="partners--4" xmlns="http://www.w3.org/2000/svg"><g clip-path="url(#asa)"><path d="M38.314 15.385c0 4.164-3.284 7.232-7.314 7.232s-7.314-3.068-7.314-7.232c0-4.194 3.284-7.233 7.314-7.233s7.314 3.04 7.314 7.233Zm-3.202 0c0-2.602-1.903-4.383-4.112-4.383-2.21 0-4.113 1.78-4.113 4.383 0 2.576 1.904 4.382 4.113 4.382 2.209 0 4.112-1.81 4.112-4.382Z" fill="#EA4335"/><path d="M54.092 15.385c0 4.164-3.283 7.232-7.314 7.232-4.03 0-7.314-3.068-7.314-7.232 0-4.19 3.284-7.233 7.314-7.233s7.314 3.04 7.314 7.233Zm-3.201 0c0-2.602-1.904-4.383-4.113-4.383-2.209 0-4.112 1.78-4.112 4.383 0 2.576 1.903 4.382 4.112 4.382 2.21 0 4.113-1.81 4.113-4.382Z" fill="#FBBC05"/><path d="M69.213 8.59v12.984c0 5.341-3.175 7.523-6.929 7.523-3.534 0-5.66-2.345-6.463-4.262l2.788-1.151c.496 1.177 1.713 2.566 3.672 2.566 2.403 0 3.892-1.47 3.892-4.239v-1.04h-.112c-.717.877-2.097 1.643-3.84 1.643-3.645 0-6.985-3.15-6.985-7.203 0-4.083 3.34-7.259 6.986-7.259 1.739 0 3.12.767 3.84 1.618h.11V8.592h3.041V8.59ZM66.4 15.41c0-2.547-1.713-4.409-3.892-4.409-2.21 0-4.06 1.862-4.06 4.409 0 2.52 1.85 4.356 4.06 4.356 2.179 0 3.892-1.835 3.892-4.356Z" fill="#4285F4"/><path d="M74.227.978v21.196h-3.123V.978h3.123Z" fill="#34A853"/><path d="m86.396 17.765 2.485 1.644c-.802 1.177-2.735 3.205-6.075 3.205-4.142 0-7.235-3.176-7.235-7.232 0-4.301 3.12-7.233 6.877-7.233 3.783 0 5.634 2.987 6.239 4.601l.332.822-9.747 4.004c.747 1.451 1.907 2.191 3.534 2.191 1.63 0 2.761-.795 3.59-2.002Zm-7.65-2.602 6.516-2.684c-.359-.903-1.437-1.532-2.706-1.532-1.627 0-3.892 1.425-3.81 4.216Z" fill="#EA4335"/><path d="M11.865 13.503v-3.068H22.29c.102.535.154 1.167.154 1.852 0 2.302-.634 5.149-2.679 7.177-1.988 2.055-4.53 3.15-7.896 3.15-6.239 0-11.485-5.041-11.485-11.23C.383 5.194 5.63.154 11.868.154c3.452 0 5.91 1.343 7.758 3.094l-2.182 2.165c-1.325-1.232-3.12-2.191-5.579-2.191-4.556 0-8.12 3.642-8.12 8.162 0 4.52 3.564 8.162 8.12 8.162 2.955 0 4.638-1.177 5.717-2.247.874-.867 1.45-2.106 1.676-3.799l-7.393.003Z" fill="#4285F4"/></g><defs><clipPath id="asa"><path fill="#fff" transform="translate(.265)" d="M0 0h89.412v30H0z"/></clipPath></defs></svg><svg fill="none" viewBox="0 0 115 26" id="partners--5" xmlns="http://www.w3.org/2000/svg"><g clip-path="url(#ata)"><path d="m40.618 14.852-.684 1.927h-.057a13.631 13.631 0 0 0-.665-1.89l-3.67-9.164H31.95v14.606h2.376v-9.013c0-.566 0-1.209-.019-2.002-.019-.397-.057-.7-.076-.926h.057c.114.567.247.982.342 1.247l4.41 10.657h1.674l4.372-10.752c.095-.245.19-.737.285-1.152h.057c-.057 1.077-.095 2.04-.114 2.626v9.259h2.529V5.688h-3.46l-3.765 9.164Zm9.62-5.045h2.471v10.468h-2.471V9.807Zm1.255-4.422c-.419 0-.76.151-1.046.416a1.337 1.337 0 0 0-.437 1.02c0 .397.152.737.437 1.002a1.47 1.47 0 0 0 1.045.397c.419 0 .78-.152 1.046-.397.285-.265.437-.605.437-1.002 0-.396-.152-.737-.437-1.02-.247-.265-.608-.416-1.045-.416Zm9.98 4.327a6.933 6.933 0 0 0-1.388-.15c-1.121 0-2.148.245-3.003.736-.856.491-1.54 1.172-1.977 2.022-.457.87-.685 1.87-.685 3.023 0 1.002.228 1.89.666 2.702.437.794 1.045 1.436 1.863 1.87.779.435 1.692.662 2.718.662 1.179 0 2.186-.246 2.985-.699l.019-.019v-2.267l-.095.075c-.361.265-.78.492-1.198.624-.437.151-.837.227-1.179.227-.988 0-1.768-.284-2.319-.907-.57-.605-.855-1.436-.855-2.476 0-1.077.285-1.927.874-2.55.59-.624 1.369-.945 2.32-.945.798 0 1.615.264 2.357.793l.095.076v-2.4l-.02-.019c-.323-.132-.684-.283-1.178-.378Zm8.156-.075c-.609 0-1.18.189-1.673.585-.419.34-.704.832-.95 1.418h-.02V9.807h-2.471v10.468h2.471v-5.347c0-.908.19-1.663.608-2.211.419-.567.951-.85 1.597-.85.228 0 .457.056.742.094.266.075.456.151.589.245l.095.076V9.826l-.057-.02c-.171-.113-.513-.17-.931-.17Zm6.73-.057c-1.73 0-3.118.51-4.088 1.512-.989 1.001-1.464 2.38-1.464 4.119 0 1.625.495 2.948 1.445 3.911.95.945 2.243 1.436 3.86 1.436 1.691 0 3.04-.51 4.01-1.53.989-1.02 1.464-2.381 1.464-4.063 0-1.662-.456-2.985-1.388-3.949-.893-.963-2.205-1.436-3.84-1.436Zm1.976 8.05c-.456.585-1.178.869-2.072.869-.893 0-1.616-.284-2.129-.907-.513-.586-.76-1.436-.76-2.513 0-1.115.266-1.966.76-2.57.513-.605 1.217-.907 2.11-.907.875 0 1.56.283 2.053.87.495.585.76 1.435.76 2.55-.037 1.134-.246 2.022-.722 2.607Zm8.764-3.477c-.78-.322-1.273-.567-1.502-.775-.19-.189-.285-.454-.285-.794 0-.283.114-.566.4-.755.285-.19.608-.284 1.083-.284.418 0 .855.076 1.274.19.418.113.798.283 1.102.51l.095.075v-2.305l-.057-.02a6.894 6.894 0 0 0-1.121-.32 7.667 7.667 0 0 0-1.217-.114c-1.179 0-2.148.284-2.908.907-.76.586-1.122 1.38-1.122 2.305 0 .492.076.926.247 1.285.171.36.418.7.76.983.343.264.837.567 1.521.85.57.246 1.008.435 1.274.586.266.151.437.321.57.453.095.151.152.34.152.586 0 .7-.532 1.04-1.615 1.04-.419 0-.856-.076-1.37-.246a5.301 5.301 0 0 1-1.387-.7l-.095-.075v2.4l.057.019c.361.17.798.283 1.33.415.533.095 1.008.17 1.426.17 1.274 0 2.32-.283 3.061-.907.76-.604 1.16-1.379 1.16-2.38 0-.7-.19-1.323-.609-1.795a7.719 7.719 0 0 0-2.224-1.304Zm9.353-4.573c-1.73 0-3.117.51-4.087 1.512-.97 1.001-1.464 2.38-1.464 4.119 0 1.625.495 2.948 1.445 3.911.95.945 2.243 1.436 3.86 1.436 1.691 0 3.04-.51 4.01-1.53.989-1.02 1.464-2.381 1.464-4.063 0-1.662-.456-2.985-1.387-3.949-.894-.963-2.206-1.436-3.84-1.436Zm1.959 8.05c-.457.585-1.18.869-2.073.869-.912 0-1.616-.284-2.129-.907-.513-.586-.76-1.436-.76-2.513 0-1.115.266-1.966.76-2.57.513-.605 1.217-.907 2.11-.907.856 0 1.56.283 2.053.87.495.585.76 1.435.76 2.55 0 1.134-.246 2.022-.722 2.607Zm16.482-5.801V9.807h-2.491V6.708l-.076.019-2.357.699-.057.019v2.362h-3.726V8.484c0-.605.152-1.077.418-1.38.266-.302.665-.453 1.16-.453.342 0 .703.076 1.102.246l.095.057V4.818l-.057-.018c-.342-.114-.798-.19-1.387-.19-.742 0-1.388.17-1.978.454a3.287 3.287 0 0 0-1.349 1.342c-.324.567-.495 1.209-.495 1.946v1.455h-1.73v2.003h1.73v8.465h2.491v-8.446h3.726v5.385c0 2.21 1.045 3.325 3.137 3.325.342 0 .703-.056 1.045-.113.361-.076.627-.17.78-.246l.019-.018V18.14l-.095.075c-.153.095-.286.17-.514.227-.19.057-.361.076-.494.076-.494 0-.836-.114-1.084-.397-.228-.265-.342-.7-.342-1.342v-4.95h2.529Z" fill="#737373"/><path d="M.088.813h11.654v11.583H.088V.813Z" fill="#F25022"/><path d="M12.958.813h11.654v11.583H12.958V.813Z" fill="#7FBA00"/><path d="M.088 13.605h11.654v11.583H.088V13.605Z" fill="#00A4EF"/><path d="M12.958 13.605h11.654v11.583H12.958V13.605Z" fill="#FFB900"/></g><defs><clipPath id="ata"><path fill="#fff" transform="translate(.088 .813)" d="M0 0h114.824v24.375H0z"/></clipPath></defs></svg><svg fill="none" viewBox="0 0 93 32" id="partners--6" xmlns="http://www.w3.org/2000/svg"><path fill-rule="evenodd" clip-rule="evenodd" d="m81.677 14.914-5.87 10.157-5.008.02L81.677 5.973 92.515 25.09h-5.087l-5.75-10.179v.002ZM65.87 20.669h5.61l-2.605 4.422h-7.31l.019-5.384V6.09h4.307l-.02 14.579ZM50.486 6.09c5.349.02 9.676 4.263 9.656 9.509-.02 5.226-4.347 9.47-9.697 9.47-5.328-.02-9.656-4.263-9.656-9.51.02-5.226 4.347-9.469 9.697-9.469Zm-.02 14.559c2.864 0 5.167-2.26 5.167-5.05.021-2.79-2.303-5.07-5.147-5.07-2.845-.02-5.17 2.26-5.17 5.05-.019 2.79 2.305 5.07 5.15 5.07Zm-17.65-6.56c-.06-.786-.26-1.827-.56-2.828A14.364 14.364 0 0 0 29.11 5.7c-.761-.825-1.622-1.592-2.906-2.496a48.915 48.915 0 0 1-2.884-1.552c-.62-.353-1.363-.786-2.343-1.1A16.858 16.858 0 0 0 17.43.102c-1.16-.04-2.324.06-3.445.274-1.183.197-2.165.51-3.467.825C7.573 2.478 5.29 4.404 3.326 6.96c-6.851 9.607-.66 23.066 10.779 24.657 1.883.256 3.766.157 5.549-.255l1.262-.334c.04-.02.1-.04.14-.04l1.443-.55c.08-.04.14-.06.22-.098l.601-.275a16.443 16.443 0 0 0 3.225-2.102c-.9.822-1.88 1.553-2.924 2.18l.06.04c.2-.06.38-.118.58-.157 0 0 0 .314-.04.255-.32.236.181.02.822-.315a10.077 10.077 0 0 0 1.823-1.218c.822-.687 1.543-1.434 2.564-2.651 1.042-1.828 2.345-3.42 2.946-5.562.2-.57.38-1.237.501-1.925.119-.687.2-1.395.2-2.122-.02-.727-.1-1.474-.26-2.396ZM17.991 30.242c3.506-.55 6.45-2.495 8.855-5.147.662-.964 1.182-1.848 1.823-2.81.801-1.966.742-3.714 1.002-4.951.32-2.241-.44-4.048-1.081-5.974-.982-2.24-2.285-3.91-4.569-5.206-5.77-3.576-13.623-2.575-17.369 2.77-.02 0-.12.137-.321.412.26-1.1.922-1.748 1.583-2.377 1.964-1.611 4.248-2.889 6.852-3.517 2.946-.314 5.87 0 8.494 1.277 3.927 2.24 6.531 5.758 7.192 9.922v3.851c-.821 6.308-6.23 11.102-12.46 11.75Zm14.405-14.343C32.256 6.664 23.1.435 14.185 1.693c-2.604.648-5.45 1.945-7.473 3.753-.982.647-1.442 1.846-2.424 2.809C.361 14.012 1.043 21.38 5.93 25.86c.627.623 1.297 1.2 2.004 1.73-4.086-2.458-5.93-6.172-6.57-10.69 0-1.611.32-3.203.66-4.813C4.309 5.032 11.5-.096 19.334 1.2c1.302.315 2.605.649 3.928.963 1.642.648 3.265 1.611 4.567 2.89 1.302 1.275 2.284 2.887 3.266 4.478.66 1.278.982 2.888 1.302 4.165.06.727.06 1.475 0 2.202l-.001-.001Z" fill="#1D1E25"/></svg><svg fill="none" viewBox="0 0 80 28" id="partners--7" xmlns="http://www.w3.org/2000/svg"><path d="M65.972 27.725c7.51 0 13.619-6.184 13.619-13.785 0-7.605-6.11-13.785-13.619-13.785-7.51 0-13.619 6.18-13.619 13.785 0 7.6 6.108 13.785 13.619 13.785Zm0-18.7c2.676 0 4.855 2.205 4.855 4.914 0 2.709-2.18 4.91-4.856 4.91-2.678 0-4.854-2.201-4.854-4.912 0-2.712 2.177-4.915 4.854-4.915l.001.003Zm-51.382 18.7c7.509 0 13.619-6.184 13.619-13.785 0-7.605-6.11-13.785-13.62-13.785C7.083.155.972 6.335.972 13.94c0 7.6 6.111 13.785 13.619 13.785Zm0-18.7c2.677 0 4.855 2.205 4.855 4.914 0 2.709-2.178 4.91-4.855 4.91-2.676 0-4.853-2.201-4.853-4.912 0-2.712 2.178-4.915 4.853-4.915v.003Zm25.683-.31-4.18-8.38h-9.79l9.143 18.33v8.63h9.656v-8.63L54.246.335h-9.794l-4.177 8.38h-.002Z" fill="#EE2E24"/></svg><svg fill="none" viewBox="0 0 113 28" id="partners--8" xmlns="http://www.w3.org/2000/svg"><g clip-path="url(#awa)"><path d="M40.222 10.212V11.7h.046c.54-.797 1.435-1.735 3.42-1.735 1.544 0 2.73.78 3.237 1.958h.046c.434-.595.93-1.046 1.488-1.366.66-.378 1.392-.595 2.316-.595 2.091 0 3.942 1.35 3.942 4.752v6.455H51.53v-6.004c0-1.724-.628-2.722-1.932-2.722-.956 0-1.65.6-1.915 1.337a2.82 2.82 0 0 0-.134.888v6.504h-3.188v-6.25c0-1.465-.602-2.482-1.89-2.482-1.029 0-1.674.757-1.939 1.405-.112.277-.148.596-.148.896v6.428h-3.19V10.212h3.028Zm30.948 0v2.067h.088c.585-1.58 1.974-2.314 3.194-2.314.307 0 .476.023.723.07v2.87c-.293-.04-.564-.08-.945-.08-1.382 0-2.345.75-2.588 1.926-.053.243-.07.506-.07.81v5.61h-3.273v-10.96h2.87Zm8.448-3.63v3.449h2.764v2.79h-2.764v4.118c0 1.333.363 1.978 1.442 1.978.508 0 .882-.059 1.206-.135l.042 2.314c-.434.151-1.357.316-2.295.316-1.104 0-2.024-.359-2.585-.915-.641-.635-.938-1.675-.938-3.156V6.58h3.128ZM34.972 21.169h-3.174V6.582h3.174v14.587Zm-8.463-3.914c0 .201-.017.412-.077.593-.247.76-1.09 1.402-2.14 1.402-.878 0-1.577-.464-1.577-1.448 0-1.505 1.778-1.923 3.798-1.913v1.366h-.004Zm3.17-2.623c0-2.485-1.135-4.667-4.975-4.667-1.97 0-3.536.517-4.39.978l.624 1.994c.78-.46 2.024-.84 3.202-.84 1.95-.002 2.267 1.031 2.267 1.693v.158c-4.249-.007-6.932 1.365-6.932 4.163 0 1.708 1.365 3.308 3.741 3.308 1.463 0 2.683-.543 3.417-1.416h.07s.487 1.893 3.16 1.169c-.141-.79-.187-1.63-.187-2.64v-3.9h.003ZM3.534 6.582c.328 1.543 1.259 6.026 1.259 6.026.391 1.843.75 3.775 1.022 5.302h.05c.264-1.622.68-3.16 1.125-5.062l1.569-6.266h3.473l1.467 6.427c.384 1.788.69 3.167.934 4.829h.046c.264-1.679.61-3.114.987-4.95l1.41-6.306h3.332L16.08 21.169c-2.63.536-3.64-.451-3.999-2.018-.36-1.57-1.065-4.555-1.065-4.555-.363-1.636-.645-2.788-.842-4.466h-.05c-.282 1.662-.578 2.827-1.015 4.463l-1.732 6.579c-2.686.5-3.617-.24-4.132-2.251C2.801 17.199.029 6.585.029 6.585h3.505v-.003Zm59.477 10.673c0 .201-.018.412-.078.593-.247.76-1.09 1.402-2.14 1.402-.878 0-1.576-.464-1.576-1.448 0-1.505 1.777-1.923 3.797-1.913v1.366h-.004Zm3.17-2.623c0-2.485-1.136-4.667-4.976-4.667-1.97 0-3.536.517-4.39.978l.624 1.994c.78-.46 2.024-.84 3.202-.84 1.946-.002 2.267 1.031 2.267 1.693v.158c-4.245-.007-6.928 1.365-6.928 4.163 0 1.708 1.368 3.308 3.74 3.308 1.46 0 2.684-.543 3.414-1.416h.074s.486 1.893 3.16 1.169c-.142-.79-.188-1.63-.188-2.64v-3.9Z" fill="#041E42"/><path d="M95.246 16.145c.313.532.292 1.127-.042 1.398L89.433 21.5c-.601.34-1.5-.072-2.01-.935-.514-.866-.422-1.831.179-2.172l6.39-2.907c.4-.151.941.127 1.254.66Zm7.595 0c.317-.533.854-.808 1.255-.664l6.393 2.908c.601.34.689 1.306.179 2.172-.513.863-1.416 1.271-2.013.935l-5.772-3.956c-.33-.268-.355-.866-.042-1.395Zm-3.8 2.144c.63 0 1.147.316 1.217.732l.622 6.867c0 .68-.812 1.237-1.835 1.237-1.019 0-1.834-.557-1.834-1.237l.618-6.867c.07-.416.587-.732 1.213-.732Zm3.842-7.829 5.772-3.959c.597-.34 1.5.069 2.013.935.51.866.422 1.832-.179 2.172l-6.393 2.91c-.401.145-.942-.13-1.255-.662-.313-.533-.288-1.128.042-1.396Zm-8.892 2.059-6.39-2.911c-.597-.34-.688-1.306-.178-2.172.51-.866 1.412-1.275 2.01-.935l5.77 3.96c.335.264.356.862.043 1.395-.313.532-.854.807-1.255.663Zm3.838-3.54-.618-6.867c0-.68.812-1.237 1.834-1.237 1.023 0 1.835.557 1.835 1.237l-.622 6.867c-.07.412-.587.732-1.216.732-.626 0-1.142-.32-1.213-.732Zm14.4 12.493V21.3h.158c.053 0 .088.034.088.086a.084.084 0 0 1-.088.086h-.158Zm-.13.312c0 .018.014.035.035.035h.067c.017 0 .035-.017.035-.035v-.195h.109l.088.206c.007.013.017.024.031.024h.081a.034.034 0 0 0 .032-.048c-.032-.062-.063-.128-.095-.193a.19.19 0 0 0 .134-.192c0-.13-.109-.206-.218-.206h-.264c-.018 0-.035.017-.035.034v.57Zm-.285-.285c0-.278.232-.505.517-.505.285 0 .516.223.516.505a.51.51 0 0 1-.516.505.51.51 0 0 1-.517-.505Zm-.123 0c0 .344.285.626.64.626.351 0 .64-.282.64-.626a.636.636 0 0 0-.64-.625.633.633 0 0 0-.64.625Z" fill="#FFC124"/></g><defs><clipPath id="awa"><path fill="#fff" transform="translate(.03 .875)" d="M0 0h112.941v26.25H0z"/></clipPath></defs></svg><svg fill="none" viewBox="0 0 115 77" id="quotes" xmlns="http://www.w3.org/2000/svg"><path d="M44.328 77H0L28.37 0H57.5L44.328 77Zm57.5 0H57.753l28.37-77H115l-13.172 77Z" fill="#EDEDED"/></svg><svg fill="none" viewBox="0 0 14.725 10.098" id="red-arrow-icon" xmlns="http://www.w3.org/2000/svg"><rect rx="-.5" width="6.5" height="8" transform="scale(1 -1) rotate(-.44 -1237.095 -196.989)" fill="none"/><path d="m1 5.24 3.72 3.78L8.5 5.3M13.72 9.09l-9-.07" stroke="#E35454" stroke-width="2" stroke-linecap="round"/></svg><svg fill="none" viewBox="0 0 366.072 260.101" id="sales-report-graph" xmlns="http://www.w3.org/2000/svg"><defs><clipPath id="aoc"><rect rx="-.5" width="29.5" height="205" transform="rotate(.016 -197624.916 1564186.679)" fill="#fff" fill-opacity="0"/></clipPath><clipPath id="aod"><rect rx="-.5" width="29.5" height="205" transform="rotate(.016 -197597.537 1365327.989)" fill="#fff" fill-opacity="0"/></clipPath><clipPath id="aoe"><rect rx="-.5" width="25.84" height="205" transform="rotate(.016 -197571.867 1179727.074)" fill="#fff" fill-opacity="0"/></clipPath><clipPath id="aof"><rect rx="-.5" width="28.28" height="205" transform="rotate(.016 -197544.761 985288.23)" fill="#fff" fill-opacity="0"/></clipPath><clipPath id="aog"><rect rx="-.5" width="29.5" height="205" transform="rotate(.016 -197517.382 786429.54)" fill="#fff" fill-opacity="0"/></clipPath><clipPath id="aoh"><rect rx="-.5" width="47.8" height="205" transform="rotate(.016 -197486.867 565476.027)" fill="#fff" fill-opacity="0"/></clipPath><clipPath id="aoj"><rect rx="-.5" width="28.28" height="205" transform="rotate(.016 -197466.926 415227.707)" fill="#fff" fill-opacity="0"/></clipPath><clipPath id="aok"><rect rx="-.5" width="31.94" height="205" transform="rotate(.016 -197438.115 207531.087)" fill="#fff" fill-opacity="0"/></clipPath><clipPath id="aol"><rect rx="-.5" width="27.06" height="205" transform="rotate(.016 -197411.287 17512.091)" fill="#fff" fill-opacity="0"/></clipPath><clipPath id="aom"><rect rx="-.5" width="29.5" height="205" transform="rotate(.016 -197383.908 -181346.6)" fill="#fff" fill-opacity="0"/></clipPath><clipPath id="aon"><rect rx="-.5" width="28.28" height="205" transform="rotate(.016 -197356.803 -375786.328)" fill="#fff" fill-opacity="0"/></clipPath><clipPath id="aoo"><rect rx="-.5" width="28.28" height="205" transform="rotate(.016 -197330.585 -570225.169)" fill="#fff" fill-opacity="0"/></clipPath><clipPath id="aoq"><rect rx="-.5" width="16.08" height="23" transform="rotate(.016 -190170.05 39607.681)" fill="#fff" fill-opacity="0"/></clipPath><clipPath id="aor"><rect rx="-.5" width="9.98" height="23" transform="rotate(.016 -805945.549 66036.675)" fill="#fff" fill-opacity="0"/></clipPath><clipPath id="aos"><rect rx="-.5" width="28.28" height="23" transform="rotate(.016 -682782.595 -232.066)" fill="#fff" fill-opacity="0"/></clipPath><clipPath id="aot"><rect rx="-.5" width="28.28" height="23" transform="rotate(.016 -559628.178 -214.575)" fill="#fff" fill-opacity="0"/></clipPath><clipPath id="aou"><rect rx="-.5" width="28.28" height="23" transform="rotate(.016 -436473.761 -197.972)" fill="#fff" fill-opacity="0"/></clipPath><clipPath id="aov"><rect rx="-.5" width="28.28" height="23" transform="rotate(.016 -313319.344 -180.485)" fill="#fff" fill-opacity="0"/></clipPath><clipPath id="aoa"><rect rx="-.5" width="365" height="259" transform="rotate(.016 -1810.808 2071.334)" fill="#fff" fill-opacity="0"/></clipPath><filter id="aop" x="165.547" y="32.055" width="116.007" height="82.013" filterUnits="userSpaceOnUse" color-interpolation-filters="sRGB"><feFlood flood-opacity="0" result="BackgroundImageFix"/><feColorMatrix in="SourceAlpha" values="0 0 0 0 0 0 0 0 0 0 0 0 0 0 0 0 0 0 127 0" result="hardAlpha"/><feOffset dy="4"/><feGaussianBlur stdDeviation="7.333"/><feComposite in2="hardAlpha" operator="out" k2="-1" k3="1"/><feColorMatrix values="0 0 0 0 0.62353 0 0 0 0 0.63922 0 0 0 0 0.72157 0 0 0 0.25 0"/><feBlend in2="BackgroundImageFix" result="effect_dropShadow_1"/><feBlend in="SourceGraphic" in2="effect_dropShadow_1" result="shape"/></filter><filter id="aow" x="167.547" y="82.049" width="22" height="22" filterUnits="userSpaceOnUse" color-interpolation-filters="sRGB"><feFlood flood-opacity="0" result="BackgroundImageFix"/><feColorMatrix in="SourceAlpha" values="0 0 0 0 0 0 0 0 0 0 0 0 0 0 0 0 0 0 127 0" result="hardAlpha"/><feOffset dy="2"/><feGaussianBlur stdDeviation="1.333"/><feComposite in2="hardAlpha" operator="out" k2="-1" k3="1"/><feColorMatrix values="0 0 0 0 0.26667 0 0 0 0 0.26667 0 0 0 0 0.3098 0 0 0 0.15 0"/><feBlend in2="BackgroundImageFix" result="effect_dropShadow_1"/><feBlend in="SourceGraphic" in2="effect_dropShadow_1" result="shape"/></filter><linearGradient x1="180.007" y1="54.05" x2="179.956" y2="237.05" id="aoi" gradientUnits="userSpaceOnUse"><stop stop-color="#2A85FF"/><stop offset="1" stop-color="#2A85FF" stop-opacity="0"/></linearGradient></defs><rect rx="-.5" width="365" height="259" transform="rotate(.016 -1810.808 2071.334)" fill="none"/><g clip-path="url(#aoa)"><mask id="aob" mask-type="alpha" maskUnits="userSpaceOnUse" x="-.612" y="8" width="367.292" height="260.101"><path transform="rotate(.016 -.54 8)" fill="#FFF" d="M-.54 8h367.22v260H-.54z"/><path stroke="#979797" stroke-opacity="0" stroke-width="0" d="m-.54 8 367.22.101-.072 260L-.612 268z"/></mask><g mask="url(#aob)"><rect rx="-.5" width="29.5" height="205" transform="rotate(.016 -197624.916 1564186.679)" fill="none"/><g clip-path="url(#aoc)"><path d="M436.81 232.84v8.53h2.36q1.15-.01 2.02-.49.35-.21.64-.48.41-.39.69-.92.46-.91.46-2.11v-.55q0-1.18-.47-2.08-.28-.55-.7-.95-.28-.26-.62-.46l-.12-.06q-.81-.43-1.85-.43h-2.41Zm1.13 7.61v-6.68h1.31q.93.01 1.54.45.22.16.4.37.68.8.68 2.25v.5q0 1.5-.72 2.3-.18.2-.38.35-.66.46-1.65.46h-1.18Zm7.81.68q.64.36 1.48.36.95 0 1.61-.43.46-.3.78-.79l-.66-.52q-.27.34-.61.56-.04.04-.09.06-.4.24-.97.24-.45 0-.81-.18-.29-.14-.53-.4-.07-.08-.14-.17-.38-.54-.4-1.34h4.29v-.45q0-1.52-.68-2.34-.21-.24-.46-.41-.59-.4-1.47-.4-.33 0-.64.08-.39.1-.76.34-.18.11-.33.25-.41.37-.68.91-.36.74-.36 1.68v.2q0 1.17.55 1.95.12.17.26.32.28.29.62.48Zm8.46-.64q-.29.12-.63.12-.54 0-.92-.25-.21-.13-.37-.34-.45-.59-.45-1.69v-.21q0-1.12.46-1.72.17-.22.39-.36.37-.23.89-.23.38 0 .69.15.18.1.34.25.16.14.26.32.18.3.21.69h1.02q-.03-.63-.3-1.12-.18-.3-.45-.54-.2-.18-.43-.31-.58-.33-1.34-.33-.82 0-1.43.36-.04.02-.07.04-.2.12-.37.28-.38.34-.61.84-.34.72-.34 1.64v.18q0 1.45.71 2.31.03.03.05.06.26.29.57.48.63.38 1.49.38.31 0 .61-.06.31-.08.61-.23.47-.23.79-.6l.14-.18q.28-.4.35-.84.02-.1.02-.2h-1.02q-.02.22-.11.4-.12.27-.37.48-.18.14-.39.23Zm-7.73-4.56q.28-.12.61-.12.46 0 .79.2.16.1.29.25.4.46.45 1.28v.09l-3.18-.01q.11-.86.55-1.33.22-.24.49-.36Z" fill="#92929D" fill-rule="evenodd"/><path d="m444.69 237.12.05-183h1.22l-.05 183h-1.22Z" fill="#F1F1F5" fill-rule="evenodd"/><path d="M444.74 54.12h1.22l-.05 183h-1.22l.05-183Z"/></g><rect rx="-.5" width="29.5" height="205" transform="rotate(.016 -197597.537 1365327.989)" fill="none"/><g clip-path="url(#aod)"><path d="M387.03 241.36h1.13v-8.53h-1.12v6.6l-4.3-6.6h-1.13l-.01 8.53h1.13l.01-6.58 4.29 6.58Zm3.12-4.9q-.36.74-.36 1.67v.08q0 1.29.61 2.14.09.12.19.23.31.35.71.57.6.33 1.38.33.69 0 1.26-.27.13-.07.25-.14.22-.14.41-.32.37-.34.6-.83.36-.73.36-1.66v-.07q0-1.33-.63-2.18-.08-.11-.17-.21-.31-.35-.7-.56-.6-.34-1.39-.34-.66 0-1.2.25-.15.07-.3.16-.16.1-.31.22-.43.37-.71.93Zm10.43-1.44-1.57 4.87-1.61-4.87h-1.11l2.3 6.34h.82l2.28-6.34h-1.11Zm-9.21 4.93q-.49-.64-.49-1.69 0-1.19.49-1.83.25-.32.58-.48.32-.16.72-.16.41 0 .75.17.32.16.56.48.5.65.5 1.69 0 1.17-.49 1.82-.23.3-.54.46-.34.18-.77.18t-.77-.17q-.31-.16-.54-.47Z" fill="#92929D" fill-rule="evenodd"/><path d="m389.79 237.1.05-183h1.22l-.05 183h-1.22Z" fill="#F1F1F5" fill-rule="evenodd"/><path d="M389.84 54.1h1.22l-.05 183h-1.22l.05-183Z"/></g><rect rx="-.5" width="25.84" height="205" transform="rotate(.016 -197571.867 1179727.074)" fill="none"/><g clip-path="url(#aoe)" fill-rule="evenodd"><path d="M332.49 245.24c2.23 0 3.85 1.72 3.85 4.49 0 2.76-1.62 4.48-3.85 4.48-2.24 0-3.86-1.73-3.86-4.49 0-2.76 1.63-4.48 3.86-4.48Zm13.64 2.31h1.39v.85h-1.4v3.82c0 .85.43.98.87.98.22 0 .36-.03.45-.05l.2.91c-.14.05-.37.12-.75.12-.85 0-1.77-.55-1.77-1.69v-4.09h-.99v-.85h.99v-1.57h1.01v1.57Zm-13.64 5.67c1.58 0 2.83-1.23 2.83-3.49 0-2.27-1.25-3.5-2.83-3.5-1.59 0-2.83 1.23-2.83 3.49 0 2.27 1.24 3.5 2.83 3.5Zm10.72-1.04c-.17 1.16-1.13 2.05-2.58 2.05-1.84 0-2.96-1.42-2.96-3.38 0-1.99 1.18-3.39 2.95-3.39 1.38 0 2.42.82 2.59 2.05h-1.01c-.15-.6-.68-1.15-1.56-1.15-1.18 0-1.96.97-1.96 2.46-.01 1.51.76 2.5 1.95 2.5.79 0 1.38-.42 1.57-1.14h1.01Z" fill="#808D9E"/><path d="m337.33 237.09.05-183h1.22l-.05 183h-1.22Z" fill="#E9ECF2"/></g><rect rx="-.5" width="28.28" height="205" transform="rotate(.016 -197544.761 985288.23)" fill="none"/><g clip-path="url(#aof)" fill-rule="evenodd"><path d="M281.71 247.53h-1.02c-.1-.86-.9-1.37-1.96-1.37-1.16 0-1.93.62-1.93 1.45 0 .94 1.04 1.28 1.69 1.45l.89.24c.9.24 2.45.77 2.45 2.4 0 1.42-1.14 2.53-3.15 2.52-1.88 0-3.03-.97-3.14-2.4h1.09c.09.99 1.01 1.45 2.05 1.45 1.21 0 2.13-.63 2.13-1.58 0-.87-.82-1.2-1.74-1.45l-1.07-.31c-1.37-.39-2.22-1.09-2.22-2.27 0-1.46 1.31-2.44 2.98-2.44 1.69.01 2.91.99 2.95 2.31Zm7.08 5.03c-.31.99-1.28 1.65-2.61 1.65-1.89 0-3.05-1.35-3.05-3.36s1.18-3.41 2.95-3.41c1.36 0 2.81.84 2.81 3.28v.42h-4.75c.04 1.4.86 2.17 2.04 2.17.79 0 1.38-.34 1.63-1.03l.98.28Zm2.64 3.97h-1.01v-9h.98v1.04h.12c.22-.34.61-1.12 1.89-1.12 1.65 0 2.79 1.31 2.79 3.37 0 2.08-1.14 3.39-2.78 3.39-1.26 0-1.69-.78-1.91-1.14h-.08v3.46Zm-5.35-8.18c-1.15 0-1.87.9-1.94 1.92l3.73.01c0-1.12-.7-1.93-1.79-1.93Zm7.21 0c-1.23 0-1.88.99-1.88 2.45 0 1.49.67 2.51 1.88 2.51 1.26 0 1.9-1.11 1.91-2.51 0-1.38-.63-2.45-1.91-2.45Z" fill="#808D9E"/><path d="m284.87 237.07.05-183h1.22l-.05 183h-1.22Z" fill="#E9ECF2"/></g><rect rx="-.5" width="29.5" height="205" transform="rotate(.016 -197517.382 786429.54)" fill="none"/><g clip-path="url(#aog)" fill-rule="evenodd"><path d="m222.53 251.58-.88 2.48h-1.1l3.2-8.73h1.09l3.21 8.73h-1.11l-.88-2.47-3.53-.01Zm1.73-4.87-1.4 3.94h2.87l-1.4-3.94h-.07Zm17.46 7.54c0 1.69-1.27 2.4-2.83 2.4-1.47 0-2.27-.62-2.68-1.31l.8-.56c.27.36.69.99 1.88.99 1.05 0 1.82-.5 1.82-1.59v-1.33h-.09c-.22.36-.63 1.11-1.9 1.11-1.59 0-2.78-1.16-2.78-3.21 0-2.01 1.14-3.32 2.8-3.32 1.27 0 1.68.78 1.9 1.13h.11v-1.04h.97v6.73Zm-10.01-1.08c.75 0 1.69-.56 1.69-1.78v-3.88l1 .01v6.54h-1v-1.11h-.07c-.31.67-.96 1.19-1.94 1.19-1.23 0-2.12-.8-2.12-2.47v-4.16h1.01v4.09c0 .96.59 1.57 1.43 1.57Zm5.23-2.43c0 1.36.65 2.32 1.91 2.32 1.21 0 1.88-.87 1.88-2.32 0-1.42-.65-2.41-1.88-2.41-1.27 0-1.9 1.08-1.91 2.41Z" fill="#808D9E"/><path d="m229.97 237.06.05-183h1.22l-.05 183h-1.22Z" fill="#E9ECF2"/></g><rect rx="-.5" width="47.8" height="205" transform="rotate(.016 -197486.867 565476.027)" fill="none"/><g clip-path="url(#aoh)"><path d="M175.06 251.56v-6.24h1.06v6.24c0 1.67-.98 2.6-2.49 2.6-1.43 0-2.47-.82-2.47-2.16h1.04c0 .74.6 1.23 1.43 1.23.91 0 1.43-.59 1.43-1.67Zm10.01-6.24h1v8.73h-1v-8.73Zm-4.54 7.84c.75 0 1.69-.56 1.69-1.79v-3.87h1.01l-.01 6.55h-1v-1.11h-.07c-.31.66-.95 1.19-1.94 1.19-1.23 0-2.12-.8-2.12-2.47l.01-4.16h1v4.09c0 .96.6 1.57 1.43 1.57Z" fill="#808D9E" fill-rule="evenodd"/><path d="m177.51 237.04.05-183H180l-.05 183.01-2.44-.01Z" fill="#E9ECF2" fill-rule="evenodd"/><path d="m155.55 237.04.05-183 48.8.01-.05 183-48.8-.01Z" fill="url(#aoi)" fill-rule="evenodd" opacity=".1"/></g><rect rx="-.5" width="28.28" height="205" transform="rotate(.016 -197466.926 415227.707)" fill="none"/><g clip-path="url(#aoj)" fill-rule="evenodd"><path d="M122.6 251.54v-6.24h1.06v6.24c0 1.68-.97 2.61-2.49 2.61-1.43 0-2.47-.82-2.47-2.17h1.04c0 .75.6 1.23 1.43 1.23.91 0 1.43-.58 1.43-1.67Zm12.69-3.23c-.97 0-1.68.64-1.68 1.79v3.93h-1v-6.54h.97v1.02h.09c.3-.66.92-1.11 1.91-1.11 1.32 0 2.21.8 2.21 2.47v4.16h-1.01l.01-4.09c0-1.02-.57-1.63-1.5-1.63Zm-7.22 4.83c.75 0 1.69-.56 1.69-1.78v-3.87h1.01v6.54h-1.01v-1.11h-.07c-.3.67-.95 1.2-1.94 1.2-1.23 0-2.11-.8-2.11-2.48v-4.15h1v4.09c0 .95.6 1.56 1.43 1.56Z" fill="#808D9E"/><path d="m129.93 237.03.05-183h1.22l-.05 183h-1.22Z" fill="#E9ECF2"/></g><rect rx="-.5" width="31.94" height="205" transform="rotate(.016 -197438.115 207531.087)" fill="none"/><g clip-path="url(#aok)" fill-rule="evenodd"><path d="m61.73 254.01.01-8.72H63l2.96 7.24h.1l2.97-7.24h1.26v8.73l-.99-.01v-6.63h-.08l-2.73 6.63h-.96l-2.72-6.63h-.09v6.63h-.99Zm14.41-.88c-.21.43-.81 1.04-1.95 1.04-1.24 0-2.23-.73-2.23-2.01 0-1.5 1.33-1.77 2.54-1.93 1.2-.15 1.69-.11 1.69-.59v-.04c0-.84-.46-1.33-1.38-1.33-.96 0-1.48.51-1.71.99l-.95-.34c.51-1.19 1.64-1.53 2.62-1.53.84 0 2.43.23 2.43 2.31l-.01 4.32h-1v-.89h-.05Zm5.23 1.84c-.38 1.02-1.02 1.5-1.93 1.5-.34 0-.63-.06-.73-.12l.25-.88c.74.19 1.19.09 1.56-.91l.19-.51-2.42-6.58h1.09l1.8 5.22h.07l1.81-5.22h1.09l-2.78 7.5Zm-8.4-2.76c0 .7.58 1.06 1.38 1.06 1.19 0 1.84-.8 1.84-1.62v-.92c-.17.2-1.32.32-1.74.37-.78.1-1.48.34-1.48 1.11Z" fill="#808D9E"/><path d="m73.83 237.02.05-183h1.19l-.05 183h-1.19Z" fill="#E9ECF2"/></g><rect rx="-.5" width="27.06" height="205" transform="rotate(.016 -197411.287 17512.091)" fill="none"/><g clip-path="url(#aol)"><path d="m10.09 241.25.8-2.22h3.58l.81 2.23h1.15l-3.26-8.54h-.98l-3.26 8.53h1.16Zm4.04-3.15h-2.9l1.45-3.99 1.45 3.99Zm8.06 2.39q.66-.88.66-2.33v-.1q.01-1.54-.66-2.4-.29-.38-.67-.59-.49-.27-1.14-.27-.76 0-1.31.34-.29.19-.53.48l-.05-.7h-.99v8.77h1.08v-3.05q.18.2.4.34.58.39 1.42.39.6 0 1.06-.24.42-.22.73-.64Zm4.66-4.64q.29 0 .53.04v-1.01q-.16-.08-.48-.08-.46 0-.82.19-.41.21-.69.66l-.02-.73h-1.05v6.34h1.08v-4.5q.17-.4.46-.62.39-.29.99-.29Zm-5.54.49q.46.62.46 1.69 0 1.22-.46 1.84-.22.3-.52.46-.32.16-.72.16-.51 0-.88-.22t-.61-.65v-3.03q.26-.45.65-.67.36-.2.83-.2.43 0 .76.18.28.16.49.44Z" fill="#92929D" fill-rule="evenodd"/><path d="m18.93 237 .05-183h1.19l-.05 183h-1.19Z" fill="#F1F1F5" fill-rule="evenodd"/><path d="M18.98 54h1.19l-.05 183h-1.19l.05-183Z"/></g><rect rx="-.5" width="29.5" height="205" transform="rotate(.016 -197383.908 -181346.6)" fill="none"/><g clip-path="url(#aom)"><path d="m-41.12 239.67-2.79-6.96h-1.46v8.53h1.13v-3.32l-.11-3.57 2.79 6.89h.86l2.81-6.91-.11 3.59v3.32h1.12l.01-8.53h-1.46l-2.79 6.96Zm9.91.9q.06.49.15.67h1.14v-.09q-.23-.52-.23-1.39v-2.92q-.01-.69-.34-1.17-.13-.19-.3-.34-.01 0-.01-.01-.62-.53-1.71-.53-.68 0-1.26.25h-.01q-.57.26-.9.7h-.01q-.29.39-.33.79-.01.07-.01.13h1.09q0-.13.04-.24.08-.26.36-.47l.08-.06q.37-.23.89-.23.65 0 .99.32 0 .01.01.02.08.07.13.16.21.3.21.74v.5h-1.05q-1.37 0-2.12.55-.32.23-.51.54-.25.43-.25.99 0 .43.17.78.15.32.43.57.12.1.26.19.53.34 1.28.34.46 0 .86-.15.52-.19.95-.64Zm5.38-4.73q.29 0 .53.04v-1.01q-.16-.08-.48-.08-.46 0-.82.19-.41.21-.69.66l-.02-.74h-1.05v6.34h1.08v-4.5q.17-.39.47-.61.38-.29.98-.29Zm-6.66 4.54q-.18.04-.37.04-.46 0-.77-.22-.06-.03-.1-.07-.11-.09-.18-.2-.16-.25-.16-.6 0-.3.13-.52.38-.64 1.86-.64h.85v1.3l-.08.14q-.2.32-.58.54-.29.17-.6.23Z" fill="#92929D" fill-rule="evenodd"/><path d="m-35.97 236.99.05-183h1.19l-.05 183h-1.19Z" fill="#F1F1F5" fill-rule="evenodd"/><path d="M-35.92 53.99h1.19l-.05 183h-1.19l.05-183Z"/></g><rect rx="-.5" width="28.28" height="205" transform="rotate(.016 -197356.803 -375786.328)" fill="none"/><g clip-path="url(#aon)"><path d="M-81.25 240.46q.67-.88.67-2.33v-.09q0-1.52-.66-2.39-.28-.38-.66-.6-.5-.28-1.15-.28-.73 0-1.26.33-.31.18-.55.49v-3.36h-1.08l-.01 9h1l.05-.73q.24.3.54.49.55.36 1.32.36.59 0 1.05-.24.42-.22.74-.65Zm-16.44-3h3.58v-.92h-3.58v-2.92h4.16v-.93h-5.28v8.53h1.12v-3.76Zm6.45 3.52q.64.36 1.48.36.95 0 1.62-.43.45-.29.77-.79l-.66-.52q-.26.34-.6.57l-.1.06q-.4.23-.97.23-.45 0-.81-.18-.29-.14-.52-.4-.08-.08-.14-.17-.39-.54-.41-1.34h4.29l.01-.45q0-1.52-.69-2.34-.2-.24-.45-.41-.6-.4-1.47-.4-.33 0-.64.08-.4.1-.76.34-.18.11-.34.25-.41.37-.67.91-.36.74-.36 1.68v.2q0 1.17.55 1.96.11.16.25.31.28.29.62.48Zm.74-5.2q.27-.12.61-.12.45 0 .78.2.16.1.3.25.39.46.44 1.29v.08h-3.17q.1-.87.55-1.34.22-.24.49-.36Zm8.41.52q.43.6.43 1.71 0 1.21-.44 1.81-.19.27-.45.42-.33.19-.76.19-.47 0-.84-.21-.44-.24-.71-.79v-2.74q.24-.52.65-.77.38-.23.89-.23.48 0 .82.22.24.14.41.39Z" fill="#92929D" fill-rule="evenodd"/><path d="m-88.43 236.97.05-183h1.19l-.05 183h-1.19Z" fill="#F1F1F5" fill-rule="evenodd"/><path d="M-88.38 53.97h1.19l-.05 183h-1.19l.05-183Z"/></g><rect rx="-.5" width="28.28" height="205" transform="rotate(.016 -197330.585 -570225.169)" fill="none"/><g clip-path="url(#aoo)"><path d="M-147.87 232.68H-149v6.06q-.01.71-.36 1.14-.04.05-.08.09-.13.13-.28.22-.36.22-.85.22-.7 0-1.1-.35l-.06-.06q-.05-.05-.09-.1-.31-.39-.31-1.05h-1.13q0 .93.44 1.53.12.16.27.3.02.02.05.04.7.61 1.93.61 1.02 0 1.7-.48.14-.1.26-.21.15-.15.28-.32.46-.63.46-1.6v-6.04Zm5.59 7.86q.06.48.15.67h1.14v-.09q-.23-.52-.22-1.39v-2.92q-.02-.7-.35-1.17-.13-.19-.3-.34l-.01-.01q-.62-.53-1.7-.54-.69 0-1.26.26h-.01q-.58.26-.91.7h-.01q-.29.39-.33.79v.13h1.09q0-.13.03-.24.08-.27.36-.47l.08-.06q.37-.23.89-.23.65 0 .99.32l.01.01q.08.08.14.17.2.3.2.74v.5h-1.05q-1.37 0-2.12.55-.32.23-.5.54-.25.42-.25.99 0 .43.16.78.15.32.44.57.12.1.25.19.53.34 1.28.34.46 0 .87-.15.51-.19.94-.64Zm3.91-4.87-.03-.8h-1.03v6.34h1.08l.01-4.51q.14-.31.37-.54.11-.11.25-.2.11-.08.24-.14.31-.14.68-.14.65 0 .95.32h.01q.31.33.31 1.02v4.19h1.09v-4.19q-.01-1.27-.65-1.82-.5-.44-1.38-.44-.59 0-1.07.23-.47.23-.83.68Zm-5.19 4.68q-.18.04-.37.04-.46 0-.77-.22-.05-.03-.1-.07-.11-.09-.18-.2-.16-.25-.16-.6 0-.3.13-.52.38-.64 1.86-.64h.85v1.3q-.03.07-.08.14-.2.32-.58.54-.29.17-.6.23Z" fill="#92929D" fill-rule="evenodd"/><path d="m-143.33 236.96.05-183h1.19l-.05 183h-1.19Z" fill="#F1F1F5" fill-rule="evenodd"/><path d="M-143.28 53.96h1.19l-.05 183h-1.19l.05-183Z"/></g><g filter="url(#aop)"><path d="m199.55 50.05 48 .01c6.63.01 12 5.38 12 12.01v14c-.01 6.62-5.38 12-12.01 11.99l-60-.01.01-26c0-6.63 5.38-12 12-12Z" fill="#FFF"/></g><path d="M225.86 71.18c-.01 1.66-1.59 2.87-3.79 2.87-2.22 0-3.79-1.21-3.79-2.87 0-1.27.93-2.33 2.13-2.53v-.07c-1.05-.23-1.75-1.15-1.75-2.26 0-1.57 1.44-2.73 3.41-2.73 1.96 0 3.41 1.17 3.41 2.73-.01 1.11-.72 2.03-1.75 2.26v.07c1.18.2 2.12 1.26 2.13 2.53Zm8.62 2.74-6.98-.01v-1.33l3.53-3.46c1.01-1.02 1.52-1.63 1.52-2.48 0-.96-.72-1.55-1.69-1.55-1.01 0-1.67.65-1.67 1.69h-1.75c0-1.93 1.43-3.19 3.45-3.19 2.05 0 3.43 1.25 3.43 2.96 0 1.15-.54 2.07-2.52 3.97l-1.76 1.79v.06l4.44.01v1.54Zm9.4-5.08c0 3.34-1.47 5.28-3.92 5.27-2.46 0-3.92-1.94-3.92-5.28 0-3.32 1.47-5.23 3.92-5.23s3.92 1.92 3.92 5.24Zm-23.42-2.34c-.01.88.67 1.49 1.61 1.49.93 0 1.6-.6 1.61-1.49-.01-.88-.66-1.47-1.61-1.47-.96 0-1.62.59-1.61 1.47Zm17.44 2.34c0 2.44.79 3.71 2.06 3.71 1.27.01 2.06-1.27 2.06-3.71 0-2.43-.79-3.71-2.06-3.71-1.26 0-2.05 1.28-2.06 3.71Zm-17.72 2.22c-.01.94.74 1.57 1.89 1.57 1.14 0 1.88-.63 1.89-1.57-.01-.97-.8-1.67-1.89-1.67-1.1 0-1.9.69-1.89 1.67Z" fill="#1D1E25" fill-rule="evenodd"/><rect x="198.554" y="64.198" rx="2" width="10" height="10" transform="rotate(.016 198.554 64.198)" fill="#2280FF"/></g><g mask="url(#aob)" stroke-width="3" stroke-linecap="round"><path d="M-9.47 147.88c4.49 1.85 15.13 7 21.68 12.81 8.2 7.28 34.7 15.24 50.62-2.06 15.91-17.3 23.14-23.53 34.71-23.53s19.28-2.42 32.3-20.41c13.02-18 17.26-26.7 33.26-26.65 15.47.05 23.3 10.74 26.99 16.62l8.68 13.51c3.53 5.65 13.03 15.23 26.94 16.25 13.92 1.03 24.62-4.14 35.72-12.77 10.33-8.04 28.44-16.61 43.86.01 12.34 13.29 18.63 18 20.24 18.7" stroke="#2280FF"/><path d="M-33.48 154.61c5.21 1.34 17.53 5.1 25.12 9.33 9.49 5.3 40.2 11.11 58.62-1.49 18.43-12.61 26.8-17.14 40.2-17.14 13.4.01 22.34-1.76 37.41-14.86 15.08-13.11 20-19.44 38.53-19.41 17.91.04 26.98 7.83 31.26 12.11l10.04 9.84c4.1 4.12 15.1 11.1 31.22 11.84 16.11.75 28.51-3.01 41.36-9.3 11.97-5.85 32.94-12.09 50.8.02 14.29 9.68 21.59 13.11 23.45 13.62" stroke="#F55"/></g><path fill="#FFF" d="m-.552 50 59.78.017-.056 203L-.608 253z"/><path d="m-.552 50 59.78.017-.056 203L-.608 253z"/><rect rx="-.5" width="16.08" height="23" transform="rotate(.016 -190170.05 39607.681)" fill="none"/><g clip-path="url(#aoq)"><path d="M13.95 59.27H15V68h-1.06l.01-7.62h-.06l-2.13 1.41v-1.07l2.19-1.45ZM18.61 68h-1v-8.73h1v5.1h.12l2.87-2.91h1.24l-2.76 2.79L23.04 68h-1.27l-2.45-3.1-.71.65V68Z" fill="#808D9E" fill-rule="evenodd"/></g><rect rx="-.5" width="9.98" height="23" transform="rotate(.016 -805945.549 66036.675)" fill="none"/><g clip-path="url(#aor)"><path d="M25.09 233.64c0 2.85-1.11 4.48-3.04 4.48-1.92 0-3.03-1.63-3.03-4.48 0-2.83 1.12-4.49 3.03-4.49 1.91 0 3.04 1.66 3.04 4.49Zm-5.05 0c0 2.27.74 3.54 2.01 3.54 1.27 0 2.01-1.27 2.02-3.54 0-2.27-.75-3.56-2.02-3.56-1.26 0-2.01 1.29-2.01 3.56Z" fill="#808D9E" fill-rule="evenodd"/></g><rect rx="-.5" width="28.28" height="23" transform="rotate(.016 -682782.595 -232.066)" fill="none"/><g clip-path="url(#aos)"><path d="M7.64 204H2.13v-.77l2.89-3.15c1-1.11 1.48-1.7 1.48-2.51 0-.92-.72-1.5-1.67-1.5-1.01 0-1.66.66-1.66 1.65h-1c0-1.53 1.16-2.57 2.69-2.57 1.54 0 2.63 1.08 2.63 2.42 0 .97-.45 1.72-1.95 3.32l-1.96 2.1v.07h4.06v.94Zm7.72-4.36c0 2.85-1.11 4.48-3.03 4.48-1.93 0-3.04-1.63-3.04-4.48 0-2.83 1.13-4.49 3.04-4.49 1.91 0 3.03 1.66 3.03 4.49Zm7.59 0c0 2.85-1.11 4.48-3.04 4.48-1.92 0-3.03-1.63-3.03-4.48 0-2.83 1.13-4.49 3.04-4.49 1.91 0 3.03 1.66 3.03 4.49Zm-12.63 0c0 2.27.74 3.54 2.01 3.54 1.27 0 2.01-1.27 2.01-3.54s-.75-3.57-2.01-3.57c-1.26 0-2.01 1.3-2.01 3.57Zm7.58 0c0 2.27.75 3.54 2.01 3.54 1.27 0 2.02-1.27 2.02-3.54s-.75-3.56-2.01-3.56c-1.27 0-2.02 1.29-2.02 3.56Z" fill="#808D9E" fill-rule="evenodd"/></g><rect rx="-.5" width="28.28" height="23" transform="rotate(.016 -559628.178 -214.575)" fill="none"/><g clip-path="url(#aot)"><path d="M15.82 165.64c0 2.85-1.12 4.48-3.04 4.48s-3.03-1.63-3.03-4.48c0-2.83 1.12-4.49 3.03-4.49 1.91 0 3.04 1.66 3.04 4.49Zm7.58 0c0 2.85-1.11 4.48-3.03 4.48-1.93 0-3.04-1.63-3.04-4.48 0-2.83 1.13-4.49 3.04-4.49 1.91 0 3.03 1.66 3.03 4.49Zm-17.35 2.57H1.94v-.87l3.84-6.07h1.27v6h1.2v.94h-1.2V170h-1v-1.79Zm4.72-2.57c0 2.27.74 3.54 2.01 3.54 1.27 0 2.01-1.27 2.01-3.54s-.74-3.57-2.01-3.57c-1.26 0-2.01 1.3-2.01 3.57Zm7.58 0c0 2.27.75 3.54 2.02 3.54 1.26 0 2.01-1.27 2.01-3.54s-.75-3.56-2.01-3.56c-1.26 0-2.01 1.29-2.02 3.56Zm-15.27 1.63h2.97v-4.65h-.07l-2.9 4.58v.07Z" fill="#808D9E" fill-rule="evenodd"/></g><rect rx="-.5" width="28.28" height="23" transform="rotate(.016 -436473.761 -197.972)" fill="none"/><g clip-path="url(#aou)"><path d="M7.96 133.19c0 1.62-1.14 2.95-2.91 2.93-1.43-.02-3.03-.92-3.03-4.15 0-3.08 1.2-4.82 3.17-4.82 1.46 0 2.5.95 2.71 2.3H6.86c-.2-.78-.75-1.36-1.67-1.36-1.35 0-2.18 1.23-2.18 3.36h.07c.47-.72 1.24-1.16 2.14-1.16 1.5 0 2.75 1.21 2.74 2.9Zm7.64-1.55c0 2.85-1.11 4.48-3.03 4.48-1.93 0-3.04-1.63-3.04-4.48 0-2.83 1.13-4.49 3.04-4.49 1.91 0 3.04 1.66 3.03 4.49Zm7.59 0c0 2.85-1.11 4.48-3.04 4.48-1.92 0-3.03-1.63-3.03-4.48 0-2.83 1.13-4.49 3.04-4.49 1.91 0 3.03 1.66 3.03 4.49Zm-12.63 0c0 2.27.74 3.54 2.01 3.54 1.27 0 2.01-1.27 2.01-3.54s-.75-3.57-2.01-3.57c-1.26 0-2.01 1.3-2.01 3.57Zm7.58 0c0 2.27.75 3.54 2.01 3.54 1.27 0 2.02-1.27 2.02-3.54s-.75-3.56-2.01-3.56c-1.27 0-2.02 1.29-2.02 3.56ZM3.16 133.2c-.01 1.04.8 1.98 1.89 1.98 1.07 0 1.89-.89 1.89-1.99 0-1.09-.79-1.97-1.85-1.97-1.09 0-1.93.94-1.93 1.98Z" fill="#808D9E" fill-rule="evenodd"/></g><rect rx="-.5" width="28.28" height="23" transform="rotate(.016 -313319.344 -180.485)" fill="none"/><g clip-path="url(#aov)"><path d="M7.92 99.68c0 1.42-1.22 2.44-2.96 2.44-1.76 0-2.98-1.02-2.97-2.44-.01-1.11.73-2.04 1.69-2.22v-.05c-.84-.21-1.37-1.01-1.36-1.94-.01-1.33 1.11-2.32 2.64-2.32 1.52 0 2.63.99 2.64 2.32-.01.93-.55 1.73-1.36 1.94v.05c.94.18 1.68 1.12 1.68 2.22Zm7.61-2.04c0 2.85-1.11 4.48-3.04 4.48-1.92 0-3.03-1.63-3.03-4.48 0-2.83 1.12-4.49 3.03-4.49 1.91 0 3.04 1.66 3.04 4.49Zm7.58 0c0 2.85-1.11 4.48-3.03 4.48-1.93 0-3.04-1.63-3.04-4.48 0-2.83 1.13-4.49 3.04-4.49 1.91 0 3.03 1.66 3.03 4.49Zm-19.77-2.1c-.01.9.67 1.5 1.62 1.5.94 0 1.61-.6 1.62-1.5-.01-.89-.66-1.47-1.62-1.47-.98 0-1.63.58-1.62 1.47Zm7.14 2.1c0 2.27.74 3.54 2.01 3.54 1.27 0 2.02-1.27 2.02-3.54s-.75-3.57-2.02-3.57c-1.26 0-2.01 1.3-2.01 3.57Zm7.59 0c0 2.27.74 3.54 2.01 3.54 1.27 0 2.01-1.27 2.01-3.54s-.75-3.56-2.01-3.56c-1.26 0-2.01 1.29-2.01 3.56ZM3.03 99.63c-.01.93.73 1.55 1.93 1.55 1.18 0 1.92-.62 1.92-1.55 0-.99-.82-1.69-1.92-1.69-1.12 0-1.94.7-1.93 1.69Z" fill="#808D9E" fill-rule="evenodd"/></g><g filter="url(#aow)"><rect x="171.549" y="84.047" rx="7" width="14" height="14" transform="rotate(.016 171.549 84.047)" fill="#2280FF"/><rect x="172.548" y="85.048" rx="6" width="12" height="12" transform="rotate(.016 172.548 85.048)" stroke="#FFF" stroke-width="2"/></g><rect x="169.038" y="15.047" rx="2" width="12.2" height="10" transform="rotate(.016 169.038 15.047)" fill="#F55"/><path d="M242.98 15.36c0 .44-.38.79-.84.79-.45 0-.83-.35-.83-.79 0-.44.38-.8.83-.8.46 0 .84.36.84.8Zm-46.66-.63c2.05 0 3.72 1.23 4.1 3.32h-1.23c-.3-1.41-1.51-2.17-2.87-2.17-1.85 0-3.3 1.43-3.3 4.08 0 2.64 1.45 4.07 3.3 4.07 1.35 0 2.57-.75 2.86-2.16h1.24c-.38 2.09-2.05 3.32-4.1 3.32-2.61 0-4.5-2.01-4.49-5.23 0-3.22 1.89-5.23 4.49-5.23Zm42.33 2.7h1.63v.99h-1.63v4.45c0 1 .49 1.16 1.01 1.16.26 0 .42-.04.52-.06l.24 1.05c-.17.06-.44.14-.88.14-.99 0-2.07-.64-2.07-1.97v-4.77h-1.15v-1h1.15V15.6h1.18v1.83Zm7.41 0h1.63v.99h-1.63v4.46c0 .99.49 1.15 1.01 1.15.26 0 .42-.04.52-.06l.24 1.05c-.16.06-.44.14-.88.14-.99 0-2.07-.63-2.07-1.97v-4.77h-1.15v-.99h1.15V15.6h1.18v1.83Zm11.84 7.64h-1.17v-7.64h1.14l-.01 1.15h.08c.28-.75 1.08-1.27 1.99-1.27.18 0 .49.01.62.02v1.19c-.08-.02-.41-.07-.72-.07-1.11 0-1.93.75-1.93 1.78v4.84Zm-49.59-3.79c0 2.36-1.39 3.93-3.46 3.93-2.07 0-3.46-1.57-3.46-3.94 0-2.39 1.39-3.95 3.46-3.95 2.07 0 3.46 1.57 3.46 3.96Zm2.46 3.77h-1.17v-7.63h1.13v1.19h.1c.32-.82 1.06-1.29 2.05-1.29 1.01 0 1.67.47 2.05 1.29h.08c.39-.79 1.19-1.29 2.29-1.29 1.36 0 2.32.83 2.32 2.63v5.11h-1.17v-5.11c0-1.13-.72-1.58-1.55-1.58-1.08 0-1.69.73-1.69 1.71v4.97h-1.2l.01-5.23c0-.87-.63-1.45-1.52-1.45-.91 0-1.73.79-1.73 1.91v4.77Zm11.67 2.87h-1.17v-10.5h1.14l-.01 1.21h.14c.26-.4.72-1.31 2.21-1.31 1.93 0 3.26 1.53 3.26 3.94 0 2.43-1.33 3.96-3.24 3.96-1.47 0-1.97-.92-2.23-1.34h-.1v4.04Zm13.1-4.63c-.35 1.15-1.49 1.93-3.04 1.93-2.21 0-3.56-1.57-3.56-3.92 0-2.35 1.38-3.98 3.44-3.98 1.59 0 3.29.98 3.28 3.82v.5h-5.54c.05 1.63 1 2.52 2.38 2.52.92 0 1.61-.39 1.91-1.19l1.13.32Zm19.9-2c0 2.36-1.39 3.94-3.46 3.94-2.07-.01-3.46-1.58-3.46-3.94 0-2.39 1.39-3.96 3.46-3.96 2.07 0 3.46 1.57 3.46 3.96Zm-12.72 3.77h-1.18l.01-7.63h1.17v7.63Zm-40.16-3.79c0 1.54.72 2.89 2.29 2.89s2.29-1.35 2.29-2.88c0-1.54-.72-2.91-2.29-2.91s-2.29 1.37-2.29 2.9Zm22.05-2.9c-1.43 0-2.19 1.16-2.19 2.87 0 1.73.78 2.92 2.19 2.92 1.47 0 2.23-1.29 2.23-2.92 0-1.61-.74-2.86-2.23-2.87Zm7.77.01c-1.34 0-2.18 1.06-2.26 2.25h4.35c0-1.3-.81-2.25-2.09-2.25Zm17.31 2.91c0 1.53.72 2.88 2.29 2.88s2.29-1.35 2.29-2.88c0-1.53-.72-2.91-2.29-2.91s-2.29 1.38-2.29 2.91Z" fill="#1D1E25" fill-rule="evenodd"/><rect x=".678" y="15" rx="2" width="12.2" height="10" transform="rotate(.016 .678 15)" fill="#2280FF"/><rect x=".678" y="15" rx="2" width="12.2" height="10" transform="rotate(.016 .678 15)"/><path d="m23.86 25 .01-10.18h1.47l3.46 8.45h.12l3.46-8.45h1.47L33.84 25h-1.15v-7.73h-.09L29.41 25H28.3l-3.18-7.73h-.1V25h-1.16Zm47.99-1.16c-.26.42-.76 1.34-2.23 1.34-1.91-.01-3.24-1.54-3.24-3.96 0-2.41 1.34-3.94 3.27-3.94 1.49 0 1.95.91 2.2 1.31h.1l.01-3.76h1.17l-.01 10.19h-1.13v-1.18h-.14Zm19.72-6.46 1.63.01v.99h-1.63v4.45c0 1 .5 1.15 1.01 1.16.26 0 .42-.04.52-.06l.24 1.05c-.16.06-.44.14-.87.14-1 0-2.07-.64-2.07-1.97v-4.77h-1.15v-1h1.15v-1.82h1.17v1.82Zm-35.98 7.63h-1.17v-7.64h1.13v1.16h.08c.28-.76 1.08-1.27 1.99-1.27.18 0 .48.01.62.02v1.19a3.66 3.66 0 0 0-.72-.08c-1.11 0-1.93.76-1.93 1.79v4.83Zm-8.03 2.86h-1.18l.01-10.5h1.13v1.22h.14c.26-.4.72-1.32 2.21-1.32 1.93 0 3.26 1.54 3.26 3.94 0 2.43-1.33 3.96-3.24 3.96-1.47 0-1.97-.92-2.23-1.33h-.1v4.03Zm17.89-6.63c0 2.36-1.39 3.93-3.46 3.93-2.07 0-3.46-1.57-3.46-3.94 0-2.38 1.4-3.95 3.46-3.95 2.07 0 3.46 1.57 3.46 3.96Zm23.22 1.55c-.2 1.35-1.31 2.39-3 2.39-2.15 0-3.46-1.65-3.46-3.94 0-2.33 1.37-3.96 3.44-3.96 1.61 0 2.82.96 3.02 2.39H87.5c-.18-.7-.8-1.33-1.83-1.33-1.37 0-2.29 1.13-2.29 2.86 0 1.77.9 2.92 2.29 2.92.91 0 1.61-.49 1.83-1.33h1.17Zm-50.01 3.33c-.45 1.19-1.19 1.75-2.25 1.75-.4 0-.74-.08-.86-.14l.3-1.03c.86.22 1.38.11 1.81-1.06l.22-.59-2.82-7.68h1.27l2.11 6.08h.08l2.11-6.08h1.27l-3.24 8.75Zm39.11-2.14c.88 0 1.97-.65 1.97-2.08l.01-4.52h1.17v7.64h-1.18v-1.29h-.08c-.35.77-1.11 1.39-2.26 1.39-1.43 0-2.47-.94-2.47-2.89v-4.85h1.18l-.01 4.77c0 1.12.7 1.83 1.67 1.83Zm-28.04-5.65c-1.43 0-2.19 1.15-2.19 2.86 0 1.73.78 2.92 2.19 2.92 1.47 0 2.22-1.29 2.22-2.92 0-1.61-.73-2.86-2.22-2.86Zm9.98 2.9c0 1.54.71 2.89 2.28 2.89 1.57 0 2.29-1.35 2.29-2.88 0-1.54-.72-2.91-2.29-2.91s-2.28 1.37-2.28 2.9Zm7.85-.03c0 1.63.75 2.92 2.22 2.92 1.41 0 2.19-1.19 2.19-2.92 0-1.71-.75-2.87-2.19-2.87-1.49 0-2.22 1.26-2.22 2.87Z" fill="#1D1E25" fill-rule="evenodd"/></g></svg></svg>